<svg width="30" height="40" viewBox="0 0 30 40" fill="none" xmlns="http://www.w3.org/2000/svg">
<path d="M28.9954 32.3C28.9554 32.2656 25.1202 28.866 20.8486 24.1272C24.2702 19.614 27.001 14.9616 27.001 11.6C27.001 11.5016 26.9894 11.4044 26.9646 11.3092C25.8374 6.79759 23.3706 0.799988 15.001 0.799988C6.63136 0.799988 4.16456 6.79759 3.03736 11.3092C3.01256 11.4044 3.00096 11.5016 3.00096 11.6C3.00096 14.614 5.01056 18.7204 9.14056 24.1356C4.88176 28.856 1.09096 32.226 1.00656 32.3C0.759357 32.5192 0.611757 32.832 0.602157 33.1624C0.591757 33.494 0.718157 33.814 0.952557 34.0484L5.75256 38.8484C5.98696 39.0828 6.29376 39.2 6.60096 39.2C6.89496 39.2 7.19056 39.092 7.42136 38.8752C7.75136 38.566 11.1374 35.3728 15.0026 31.1112C19.0038 35.5132 22.5426 38.8392 22.581 38.8752C22.8114 39.092 23.107 39.2 23.401 39.2C23.7082 39.2 24.015 39.0828 24.2494 38.8484L29.0494 34.0484C29.2838 33.814 29.4102 33.494 29.3998 33.1624C29.3906 32.832 29.2438 32.5192 28.9954 32.3ZM15.0086 16.94C13.4726 14.8064 12.2214 12.8016 11.2734 10.9396C11.3402 10.82 12.2862 9.19999 15.001 9.19999C17.7594 9.19999 18.697 10.8804 18.7274 10.9368C18.729 10.9396 18.731 10.9416 18.7322 10.944C17.7154 12.942 16.4298 14.9688 15.0086 16.94ZM20.851 4.96359C20.6638 6.11799 20.303 7.32079 19.819 8.54759C18.923 7.71599 17.4002 6.79999 15.001 6.79999C12.6126 6.79999 11.0846 7.70959 10.187 8.53799C9.68616 7.26639 9.35056 6.07479 9.17136 4.96079C10.5594 3.88159 12.4238 3.19999 15.001 3.19999C17.585 3.19999 19.461 3.87839 20.851 4.96359ZM5.40336 11.7408C5.81016 10.1452 6.34856 8.54359 7.20616 7.16559C8.15576 10.5984 10.263 14.5452 13.5026 18.9484C12.6062 20.1024 11.6826 21.2264 10.7602 22.2984C6.47896 16.6028 5.45616 13.4364 5.40336 11.7408ZM6.62216 36.3244L3.54136 33.2436C7.17656 29.892 19.9114 17.5884 22.8094 7.18679C23.6602 8.56039 24.1946 10.154 24.599 11.7408C24.4158 17.9376 12.2918 30.8668 6.62216 36.3244ZM23.3834 36.3208C22.0898 35.066 19.4566 32.452 16.6098 29.3076C17.527 28.2572 18.4506 27.1624 19.3494 26.046C22.3642 29.3656 25.0846 31.9676 26.4618 33.2408L23.3834 36.3208Z" fill="#CD5F37"/>
</svg>
