<svg width="38" height="40" viewBox="0 0 38 40" fill="none" xmlns="http://www.w3.org/2000/svg">
<path d="M32.125 13.2031C29.0665 13.2031 26.5781 15.6915 26.5781 18.75C26.5781 21.4065 28.4556 23.6317 30.9531 24.1712V29.4531C30.9531 33.9763 27.2732 37.6562 22.75 37.6562H21.5C16.9768 37.6562 13.2969 33.9763 13.2969 29.4531V27.854C14.7484 27.3638 15.7969 25.9899 15.7969 24.375V23.819C16.263 23.6953 16.7227 23.5482 17.1714 23.3789C18.8745 22.7362 19.8213 20.9555 19.4756 19.2259C22.2751 16.9945 23.9219 13.6114 23.9219 10V4.92188C23.9219 2.89719 22.2747 1.25 20.25 1.25H18.2969V1.17188C18.2969 0.524687 17.7722 0 17.125 0C16.4778 0 15.9531 0.524687 15.9531 1.17188V3.67188C15.9531 4.31906 16.4778 4.84375 17.125 4.84375C17.7722 4.84375 18.2969 4.31906 18.2969 3.67188V3.59375H20.25C20.9823 3.59375 21.5781 4.18953 21.5781 4.92188V10C21.5781 12.7766 20.363 15.3855 18.2826 17.1722C17.2959 16.318 15.8833 16.0162 14.5787 16.508C13.049 17.0852 11.2885 17.1182 9.67133 16.508C8.36695 16.0159 6.9543 16.3177 5.96758 17.172C3.88742 15.385 2.67188 12.7748 2.67188 10V4.92188C2.67188 4.18953 3.26766 3.59375 4 3.59375H5.95312V3.67188C5.95312 4.31906 6.47781 4.84375 7.125 4.84375C7.77219 4.84375 8.29688 4.31906 8.29688 3.67188V1.17188C8.29688 0.524687 7.77219 0 7.125 0C6.47781 0 5.95312 0.524687 5.95312 1.17188V1.25H4C1.97531 1.25 0.328125 2.89719 0.328125 4.92188V10C0.328125 13.6089 1.97547 16.9945 4.77437 19.2259C4.42875 20.9555 5.37547 22.7362 7.07867 23.3789C7.52734 23.5482 7.98703 23.6953 8.45312 23.819V24.375C8.45312 25.9899 9.50156 27.3638 10.9531 27.854V29.4531C10.9531 35.2687 15.6845 40 21.5 40H22.75C28.5655 40 33.2969 35.2687 33.2969 29.4531V24.1712C35.7944 23.6318 37.6719 21.4065 37.6719 18.75C37.6719 15.6915 35.1835 13.2031 32.125 13.2031ZM12.125 25.7031C11.3927 25.7031 10.7969 25.1073 10.7969 24.375V22.8859C10.7969 22.3244 10.3987 21.8419 9.8475 21.7352C9.18641 21.6074 8.5332 21.4227 7.90609 21.186C7.22086 20.9274 6.87383 20.1597 7.13242 19.4745C7.39016 18.7915 8.15711 18.4416 8.84398 18.7009C10.9002 19.4768 13.2493 19.5147 15.4059 18.7009C16.0913 18.4423 16.8591 18.7895 17.1177 19.4745C17.3763 20.1598 17.0291 20.9275 16.344 21.186C15.7169 21.4227 15.0637 21.6075 14.4026 21.7352C13.8513 21.8418 13.4532 22.3244 13.4532 22.8859V24.375C13.4531 25.1073 12.8573 25.7031 12.125 25.7031ZM32.125 21.9531C30.3588 21.9531 28.9219 20.5162 28.9219 18.75C28.9219 16.9838 30.3588 15.5469 32.125 15.5469C33.8912 15.5469 35.3281 16.9838 35.3281 18.75C35.3281 20.5162 33.8912 21.9531 32.125 21.9531Z" fill="#CD5F37"/>
</svg>
