<svg width="24" height="24" viewBox="0 0 24 24" fill="none" xmlns="http://www.w3.org/2000/svg">
<path d="M8 4C8 6.20914 6.20914 8 4 8C1.79086 8 0 6.20914 0 4C0 1.79086 1.79086 0 4 0C6.20914 0 8 1.79086 8 4Z" fill="white"/>
<path d="M8 20C8 22.2091 6.20914 24 4 24C1.79086 24 0 22.2091 0 20C0 17.7909 1.79086 16 4 16C6.20914 16 8 17.7909 8 20Z" fill="white"/>
<path d="M24 4C24 6.20914 22.2091 8 20 8C17.7909 8 16 6.20914 16 4C16 1.79086 17.7909 0 20 0C22.2091 0 24 1.79086 24 4Z" fill="white"/>
<path d="M24 20C24 22.2091 22.2091 24 20 24C17.7909 24 16 22.2091 16 20C16 17.7909 17.7909 16 20 16C22.2091 16 24 17.7909 24 20Z" fill="white"/>
</svg>
