<svg width="29" height="29" viewBox="0 0 29 29" fill="none" xmlns="http://www.w3.org/2000/svg">
<path d="M1.00156 19.2225C0.771562 19.2225 0.541562 19.1345 0.365562 18.9585C0.0135625 18.6075 0.0135625 18.0375 0.365562 17.6865L3.22756 14.8245C3.57956 14.4725 4.14856 14.4725 4.49956 14.8245C4.85156 15.1755 4.85156 15.7455 4.49956 16.0965L1.63756 18.9585C1.46256 19.1345 1.23256 19.2225 1.00156 19.2225Z" fill="white"/>
<path d="M3.31797 26.5824C3.08797 26.5824 2.85797 26.4944 2.68197 26.3184C2.32997 25.9674 2.32997 25.3974 2.68197 25.0464L8.06597 19.6624C8.41797 19.3104 8.98697 19.3104 9.33797 19.6624C9.68997 20.0134 9.68997 20.5834 9.33797 20.9344L3.95397 26.3194C3.77797 26.4954 3.54797 26.5824 3.31797 26.5824Z" fill="white"/>
<path d="M10.6793 28.9003C10.4493 28.9003 10.2193 28.8123 10.0433 28.6363C9.6913 28.2853 9.6913 27.7153 10.0433 27.3643L12.9053 24.5023C13.2573 24.1503 13.8263 24.1503 14.1773 24.5023C14.5293 24.8533 14.5293 25.4233 14.1773 25.7743L11.3153 28.6363C11.1403 28.8123 10.9103 28.9003 10.6793 28.9003Z" fill="white"/>
<path d="M26.4741 0.0842309L2.97013 7.09423C1.19513 7.62323 1.07113 10.0892 2.78313 10.7942L12.8751 14.9532C12.9191 14.8462 12.9831 14.7462 13.0701 14.6602L18.2311 9.49923C18.5831 9.14723 19.1521 9.14723 19.5031 9.49923C19.8551 9.85023 19.8551 10.4202 19.5031 10.7712L14.3421 15.9322C14.2551 16.0192 14.1551 16.0842 14.0481 16.1282L18.2091 26.2252C18.9131 27.9342 21.3751 27.8102 21.9031 26.0382L28.9151 2.52523C29.3611 1.03123 27.9691 -0.360769 26.4741 0.0842309Z" fill="white"/>
</svg>
