<svg width="32" height="40" viewBox="0 0 32 40" fill="none" xmlns="http://www.w3.org/2000/svg">
<path d="M16.0004 39.2C15.7684 39.2 15.5364 39.1328 15.3348 38.9984L5.20959 32.2484C2.19799 30.2404 0.400391 26.8812 0.400391 23.2624V7.99999C0.400391 7.33839 0.937191 6.80239 1.59879 6.79999C1.67799 6.79999 9.59199 6.71079 15.152 1.15159C15.6208 0.682788 16.38 0.682788 16.8488 1.15159C22.4328 6.73559 30.3212 6.79999 30.4004 6.79999C31.0632 6.79999 31.6004 7.33719 31.6004 7.99999V23.2624C31.6004 26.8812 29.8028 30.2404 26.7912 32.2484L16.666 38.9984C16.4644 39.1328 16.2324 39.2 16.0004 39.2ZM2.80039 9.13559V23.2624C2.80039 26.0772 4.19919 28.69 6.54119 30.2516L16.0004 36.558L25.4596 30.2516C27.8016 28.69 29.2004 26.0772 29.2004 23.2624V9.13559C26.708 8.91479 20.8344 7.94079 16.0004 3.64839C11.1664 7.94079 5.29279 8.91479 2.80039 9.13559ZM22.0004 18.8H17.2004V14C17.2004 13.3372 16.6632 12.8 16.0004 12.8C15.3376 12.8 14.8004 13.3372 14.8004 14V18.8H10.0004C9.33759 18.8 8.80039 19.3372 8.80039 20C8.80039 20.6628 9.33759 21.2 10.0004 21.2H14.8004V26C14.8004 26.6628 15.3376 27.2 16.0004 27.2C16.6632 27.2 17.2004 26.6628 17.2004 26V21.2H22.0004C22.6632 21.2 23.2004 20.6628 23.2004 20C23.2004 19.3372 22.6632 18.8 22.0004 18.8Z" fill="#CD5F37"/>
</svg>
