<svg width="197" height="48" viewBox="0 0 197 48" fill="none" xmlns="http://www.w3.org/2000/svg">
<path d="M156.236 9.61467H159.507V37.2327H156.236V9.61467ZM102.93 9.61467H99.6606V37.2327H119.046V33.9284H102.93V9.61467ZM66.812 37.2327H92.2701V33.9284H70.0817V25.0768H90.9861V21.7718H70.0817V12.9196H92.2701V9.61467H66.812V37.2327ZM118.865 23.4243C118.865 31.0591 126 37.248 134.802 37.248L148.174 37.2333V23.1291H144.904V33.9394H134.802C127.825 33.9394 122.168 29.2312 122.168 23.4237C122.168 17.6162 127.825 12.908 134.802 12.908H148.174V9.61406L134.802 9.6C126 9.60061 118.865 15.7901 118.865 23.4243ZM193.73 34.636L173.644 9.61467H168.038V37.2327H171.308V11.9168L191.628 37.2327H197V9.61467H193.73V34.636Z" fill="white"/>
<path d="M29.642 46.9998C18.9684 46.9998 10.2588 37.2705 9.78003 25.0606L33.5085 24.2941V23.5875L9.78735 22.7625C10.343 10.6362 19.0196 1.00015 29.642 1.00015C38.3357 1.00015 45.7259 7.45385 48.428 16.4461L51.8883 16.4632C48.8038 6.90038 40.0094 0 29.642 0C17.13 0 6.90836 10.0516 6.25083 22.7027L0 22.4677V25.4139L6.24473 25.1796C6.84553 37.8868 17.091 48 29.642 48C40.0479 48 48.8684 41.0484 51.9225 31.4313L48.4646 31.4307C45.7936 40.487 38.3754 46.9998 29.642 46.9998Z" fill="white"/>
</svg>
