<svg width="154" height="68" viewBox="0 0 154 68" fill="none" xmlns="http://www.w3.org/2000/svg">
<path fill-rule="evenodd" clip-rule="evenodd" d="M20.3414 0.337098C20.4853 0.512679 20.2615 0.815421 19.4843 1.54479C16.1533 4.67187 5.57709 11.8191 3.06991 27.8892C0.502895 44.3364 9.0494 52.3608 17.7759 53.8071C32.6183 56.2651 46.558 41.9919 49.1887 29.1048C51.6421 17.0824 50.0258 8.78077 38.2962 5.54847C19.8936 0.478305 1.07485 29.9432 9.81577 37.2304C10.6972 36.8559 13.8812 36.2048 13.1404 39.198C12.5233 41.6933 9.10251 39.9675 8.59669 39.5379C-0.513782 32.0771 15.4958 -2.65846 39.0694 2.67669C50.0605 5.16471 56.365 15.2981 52.76 29.8076C49.3759 43.4296 34.1951 60.1383 15.9671 56.5059C5.86189 54.4924 -2.47539 45.8992 0.675815 27.6842C3.60501 10.7521 13.8461 3.48022 18.6137 0.288794C19.1945 -0.100166 19.9758 -0.107972 20.3414 0.337098ZM142.883 26.7258C143.894 22.2746 141.329 19.0405 139.666 18.7153C135.635 17.928 132.668 21.4632 131.45 26.2536C130.757 28.9757 130.226 33.2812 133.104 37.0857C138.564 36.9871 141.874 31.1664 142.883 26.7258ZM71.4665 52.5918C47.8985 56.0427 25.5408 61.0233 13.3742 64.5793C11.7233 64.8689 11.0044 61.9844 13.543 61.1551C30.9335 57.1198 51.859 52.7713 71.6719 49.5025C71.9197 46.8522 72.2948 44.2151 72.796 41.6005C72.0996 42.5344 69.7942 45.2226 67.7344 44.7863C66.6575 44.5581 65.858 42.7633 65.6593 41.1412C64.9537 42.18 62.675 46.4565 60.4352 46.0353C59.0159 45.7687 58.3944 44.6188 58.2002 43.9343C57.8434 42.6734 58.4221 38.8837 59.0025 35.4668C58.2432 36.2361 57.308 36.4793 56.5395 36.4308C56.1471 37.211 54.155 39.1704 53.9227 40.203C53.8137 40.6897 51.3965 42.6219 50.794 42.9395C50.1091 43.2998 49.6209 42.8985 50.0568 41.7818C51.4491 40.9358 53.1888 39.2553 54.949 35.9759C53.4444 35.1919 53.3556 31.5574 54.0387 30.0788C54.3742 28.9994 55.6328 24.4133 59.2419 24.9927C61.405 25.3401 59.5688 31.3668 58.5685 33.1538C59.185 33.1426 60.6141 32.4966 61.7258 31.3298C62.6655 30.3428 63.9617 32.1061 62.9813 33.9979C62.5192 34.8902 62.1875 35.4225 61.7699 35.9023C61.2358 36.5164 59.5305 43.0737 61.0001 43.3211C62.5599 43.583 65.0677 39.7488 65.7314 38.7241C66.2429 36.2833 66.8359 34.4585 67.4049 32.7713C67.6347 31.8979 68.3828 31.4202 69.0157 31.4941C69.6388 31.5669 70.4549 31.7902 70.2761 32.6206C69.8393 34.6384 68.6604 38.8852 68.4962 40.8323C68.4191 41.749 68.7893 42.1958 69.3047 42.3426C70.4141 42.6583 72.6469 39.8922 73.4166 38.6516C73.0474 37.9228 71.7643 34.7734 73.9857 33.4516C74.4349 31.9998 74.4962 31.3805 75.5831 23.2387C75.7543 21.9565 77.6006 13.2589 79.9617 13.8612C81.7309 14.3123 79.6702 19.1828 79.223 21.0139C78.7851 22.803 76.8133 28.7468 76.1638 34.8297C77.1801 35.7494 80.3053 33.7809 81.8499 32.6066C81.8465 32.3251 81.8488 32.0436 81.8569 31.7622C82.2265 18.1253 87.272 5.29247 92.5111 6.0152C98.3974 6.82709 94.053 18.6732 93.7436 19.487C91.2467 26.0583 88.9037 28.01 84.4163 33.3634C84.4244 35.8459 85.0846 41.9139 88.6195 42.507C90.6655 42.8495 91.7387 41.8432 92.6147 40.9048C91.8927 39.9602 91.4614 38.7062 91.3191 37.1481C91.1578 35.3836 90.896 33.2501 91.4334 31.0138C91.9888 28.7041 94.3886 21.4029 99.6595 22.4679C100.601 22.6579 101.575 23.0281 102.006 24.2242C102.023 24.2755 102.582 25.2344 101.8 26.3104C101.512 26.5832 100.658 26.7074 100.487 26.2998C99.6722 24.7676 99.3392 24.5482 98.6087 24.4509C96.7912 24.2096 94.2228 27.566 93.5398 31.2946C93.1947 33.1731 92.7328 39.815 97.0353 40.7335C100.733 41.5216 101.391 35.8738 101.556 34.3416C101.94 30.8016 101.575 26.0121 103.149 26.3116C104.862 25.4484 103.838 30.0749 103.722 31.4976C103.675 32.0579 103.778 36.6717 106.641 36.9406C107.599 37.0304 108.233 36.5947 109.15 33.6057C108.755 31.3689 108.646 28.7534 108.853 26.4654C108.938 25.5328 109.105 22.9225 110.732 23.349C111.157 23.4609 111.325 23.8249 111.277 24.2068C111.016 26.3112 110.647 29.4024 112.446 31.3447C112.634 30.8702 113.438 25.6966 113.984 24.2613C114.532 22.8208 115.875 21.9842 116.5 21.9291C117.492 21.8418 118.961 22.5353 118.625 24.2071C118.513 24.7659 118.239 30.4584 118.943 31.0718C120.082 32.0644 120.186 28.2982 121.041 25.1189C121.343 23.739 122.463 21.936 123.838 22.0291C124.66 22.0847 125.737 22.9411 125.512 24.0066C125.156 25.7 124.839 28.6434 125.149 31.042C125.56 34.2095 128.077 36.5329 129.334 36.8752C129.743 36.9869 130.149 37.0139 130.575 37.0115C128.363 33.4867 127.87 28.8261 128.693 25.6206C129.717 21.6338 133.86 13.8345 141.859 15.7477C145.359 16.568 146.352 23.0317 145.095 26.8568C143.48 32.3643 139.579 38.3228 134.808 39.1039C135.78 40.1803 137.121 41.8334 140.494 42.3539C147.126 43.3777 149.183 40.1849 151.982 38.1913C152.78 37.6239 153.613 37.9309 153.804 38.1123C154.032 38.3292 154.234 39.0245 153.357 39.9385C152.337 41.0001 148.194 45.8401 140.336 44.3354C136.92 43.6789 134.249 41.8721 132.304 39.5393C126.257 38.8696 123.965 36.9454 122.96 30.2509C122.843 29.3334 122.94 28.3586 123.065 27.4447C123.082 27.3173 123.255 26.8359 122.697 26.765C122.286 26.7133 121.689 27.5583 121.13 30.0071C120.426 33.0927 120.846 37.3229 118.243 37.014C116.724 36.8337 116.733 35.1102 116.613 34.8242C115.626 32.4721 117.009 25.9292 115.656 25.8975C114.494 25.8702 114.035 29.2804 113.634 31.5046C113.312 33.3048 114.131 38.6212 112.338 38.8423C111.14 38.9892 110.222 37.6313 109.614 35.5992C109.099 37.5593 108.189 39.9997 106.346 39.7599C104.171 39.4765 103.679 38.1648 103.055 36.8158C102.965 39.1575 101.142 44.6513 96.2 43.6626C95.2893 43.4803 94.5637 42.9479 93.9341 42.3417C92.2234 44.45 90.445 45.5999 87.701 45.2227C83.587 44.6574 82.2877 39.0836 81.9511 34.9377C80.1447 36.1037 77.382 37.2753 76.6703 37.0121C78.9699 40.3339 81.4339 43.8329 82.9946 47.741C101.532 45.0407 118.197 43.5995 128.807 44.6745C131.71 45.1424 131.017 48.6133 127.505 48.8433C114.838 48.113 99.5103 49.0806 84.0221 50.922C84.7102 53.731 84.8522 56.7579 84.1164 60.0739C83.0138 65.0342 81.7454 68.2398 78.3195 67.9859C72.4035 67.5497 71.1636 60.0958 71.4665 52.5918ZM81.8492 51.1859C79.0941 51.5275 76.3422 51.8939 73.5938 52.285C73.281 59.1474 74.2021 65.8493 78.043 65.9555C81.665 66.055 82.5548 57.8256 82.3644 54.7495C82.2944 53.5493 82.1221 52.3571 81.8492 51.1859ZM73.8177 49.153C76.1543 48.7754 78.4932 48.4112 80.834 48.0603C79.4781 44.813 77.4457 42.2811 75.5542 39.6261C74.8656 41.7607 74.1853 45.3252 73.8177 49.153ZM56.6624 32.9107C56.0916 33.1775 55.3551 32.1721 55.6482 30.6268C55.886 29.3777 56.7253 28.0084 58.0658 28.6178C58.6507 28.8834 57.346 32.5908 56.6624 32.9107ZM91.3133 19.3139C91.8447 16.4376 93.7872 11.4256 91.5751 9.80829C88.0335 7.21633 83.8035 26.713 84.2373 30.23C87.5212 26.7784 90.8331 21.9156 91.3133 19.3139ZM70.8406 23.6926C71.7716 23.9525 72.2465 25.2127 71.8977 26.498C71.5488 27.7832 70.5068 28.6194 69.576 28.3587C68.6458 28.0989 68.1701 26.8386 68.5189 25.5533C68.8678 24.2681 69.9098 23.4319 70.8406 23.6926Z" fill="#CD5F37"/>
</svg>
