<svg width="191" height="40" viewBox="0 0 191 40" fill="none" xmlns="http://www.w3.org/2000/svg">
<path fill-rule="evenodd" clip-rule="evenodd" d="M189.204 25.2157C187.481 24.3725 187.864 22.365 187.991 20.8091C188.82 17.8942 189.204 14.7192 189.843 11.738C189.843 10.8306 190.481 9.861 190.034 9.01677C186.906 8.04513 183.649 8.49884 180.584 8.7578C179.881 8.88729 179.242 8.95254 178.604 9.08203C175.667 9.72944 172.795 11.0906 170.88 13.6171C168.836 16.3373 166.666 19.708 167.751 23.2061C168.261 24.5652 169.283 25.9273 170.497 26.639C173.179 27.8706 176.051 27.159 178.604 25.9263C179.307 25.5378 179.945 25.1494 180.648 24.7589C181.35 24.3052 181.925 23.5935 182.82 23.5283C183.713 24.2409 182.82 25.7316 183.585 26.5085C185.309 26.9622 187.097 26.4442 188.757 26.6379C189.586 26.5085 190.416 26.5737 190.991 26.1842C191.121 25.1515 189.779 25.6041 189.204 25.2157ZM184.608 17.1162C183.968 19.5122 182.309 21.2618 180.648 22.6882C180.01 23.2061 179.308 23.7883 178.604 24.242C177.136 25.0831 175.477 25.5389 173.817 24.6304C172.476 23.9177 171.71 22.2997 171.965 20.6144C172.412 17.8942 173.752 15.1066 175.733 13.0991C176.371 12.3865 177.456 11.479 178.604 10.8306C179.223 10.4885 179.891 10.2483 180.584 10.1189C181.733 9.98841 183.266 10.0537 184.287 10.8958C185.948 12.257 185.183 15.2372 184.608 17.1162ZM165.389 7.33245C164.751 5.71235 162.323 7.20296 161.047 7.85038C158.876 8.82306 157.024 10.0537 155.236 11.6738C154.597 12.2559 153.768 13.5518 152.937 13.2276C152.043 12.9034 152.81 11.5422 152.81 10.5706C152.81 9.59893 153.385 8.10935 152.81 7.26615L152.171 6.42399C151.66 5.71131 150.448 6.1008 149.873 6.35976C144.318 8.56202 139.529 12.3854 136.208 17.0499C134.93 18.929 133.591 20.8723 132.569 22.8798C132.197 23.5894 131.877 24.3258 131.611 25.0831C131.484 25.6673 131.101 26.1853 131.484 26.7032C131.548 26.899 131.995 26.899 132.569 26.899C133.016 26.8327 133.526 26.7674 133.718 26.7032C134.868 26.38 134.485 24.8884 134.995 23.982C135.825 22.5577 136.272 20.8723 137.167 19.3817C138.826 16.5952 140.55 13.5508 143.297 11.8654C144.445 11.0885 145.468 10.7001 146.936 10.5695C147.382 10.5695 148.084 10.8938 148.275 11.3475C148.978 13.0971 147.957 15.0404 147.573 16.7257C146.998 19.0575 145.657 20.6775 145.019 22.8788C144.699 24.0462 143.423 25.2136 143.998 26.379C144.444 27.3506 146.424 27.2874 147.189 26.5085C148.657 24.8231 149.041 22.3629 150.191 20.4186C152.041 17.3731 153.894 14.1982 157.149 12.2549C158.363 11.6064 160.407 10.4401 161.3 11.8654C162.258 13.2918 161.428 15.3646 161.236 16.9194C160.662 19.8986 159.002 22.8156 158.683 26.2495C158.619 26.8316 159.448 26.899 159.896 26.9622C160.598 26.9622 161.684 27.4801 162.068 26.5085C162.897 24.4347 163.344 22.2334 163.983 19.9659C165.069 15.9498 166.985 11.1548 165.389 7.33245ZM133.782 10.7021C133.782 8.82306 133.463 7.07348 132.569 5.71235C132.378 5.45338 132.186 5.25967 132.058 4.99967C129.377 2.14896 124.972 2.27844 121.267 3.12164C120.629 3.31534 119.99 3.44483 119.416 3.63957C118.238 4.01385 117.087 4.46825 115.969 4.99967C111.179 7.46193 107.22 11.479 105.496 16.5973C104.667 19.0595 104.539 21.327 105.178 23.9188C105.88 26.381 108.37 28.3254 110.35 28.8433C113.349 29.6844 116.479 29.297 119.416 28.3896C120.31 28.0643 121.205 27.7422 122.098 27.3517C125.036 26.0568 127.397 23.6598 129.378 21.4565C130.655 19.9007 131.739 18.2174 132.57 16.3383C133.271 14.5897 133.718 12.7107 133.782 10.7021ZM129.248 11.2201C128.61 14.9129 127.078 18.2826 124.906 21.4565C123.438 23.5303 121.587 25.4094 119.415 26.64C118.011 27.419 116.416 27.9349 114.754 27.9349C111.69 28.0011 109.391 25.0199 109.391 22.106C109.455 17.8289 111.37 13.6823 113.605 10.1832C115.075 7.91564 117.053 6.10184 119.415 4.7407C119.799 4.54596 120.182 4.35122 120.628 4.09329C122.735 3.05638 125.864 3.05638 127.651 4.87019C129.185 6.49029 129.633 9.08203 129.248 11.2201ZM100.642 5.97131C100.068 5.58286 99.367 5.64812 98.7269 5.45338C96.2371 5.45338 94.0688 6.55451 92.0894 7.91564C91.8332 8.11038 91.578 8.23986 91.3861 8.43357C90.3009 9.27573 89.3434 10.2484 88.5778 11.0253L88.0663 11.2201C87.8744 10.9601 87.7468 10.8958 87.8111 10.5716C87.9387 9.21151 88.5134 7.46193 87.6835 6.23132C87.4916 6.03657 87.1721 6.10183 87.0445 5.84183L85.5755 5.64813C82.3854 5.71235 79.5117 5.90709 76.3818 6.10183C76.2542 6.16606 76.1899 6.16606 76.1266 6.23132C75.8704 6.29554 75.6795 6.3608 75.6795 6.61977C75.7428 6.87873 75.9347 6.94399 76.1266 7.00822C76.3175 7.07348 76.637 7.00822 76.8279 7.00822C78.5521 7.00822 80.1477 7.07348 81.6177 7.65667C82.4476 7.97986 83.2143 8.82306 83.2143 9.72944C83.2143 10.9601 83.2143 12.3222 82.8304 13.4876C82.7028 15.3024 81.8096 16.9215 81.6177 18.93C80.5958 20.8091 80.2773 23.2061 79.6393 25.2157L79.574 25.1515C79.2555 26.8348 78.6175 28.3906 78.2346 30.0087C77.9794 31.4351 77.2761 32.473 77.0852 33.8973C77.0209 34.2205 76.5104 34.61 76.7013 35.1279C77.7875 35.4532 79.1279 35.2574 80.2773 35.4532C80.7878 35.1942 80.7245 34.4805 80.9154 33.8973C81.1073 33.1183 81.3625 32.3414 81.5544 31.5645C82.1281 30.0087 81.9372 27.8054 83.788 27.2895C85.3846 26.9642 87.0445 27.3527 88.4491 27.16C89.471 27.16 90.4275 26.901 91.3861 26.8348C91.5147 26.8348 91.6423 26.7705 91.7699 26.7705C95.5358 25.9294 99.0475 23.0114 100.77 19.5795C102.048 17.8952 102.749 15.7561 103.196 13.5539C103.58 11.998 103.771 9.601 103.07 8.17564C102.495 7.20296 101.792 6.10183 100.642 5.97131ZM97.1314 18.1531C96.6842 19.2532 95.9829 20.0312 95.4092 21.1976C94.515 22.8177 93.047 24.1125 91.3861 24.9547C89.8538 25.6684 88.1939 25.9926 86.534 25.8631C85.5755 25.7989 84.1075 26.0579 83.8523 25.2157C83.3419 23.0103 84.9375 20.8744 85.896 18.8006C87.364 15.9498 88.8952 12.8402 91.3861 10.6369C92.217 9.92419 93.1746 9.34099 94.2597 8.82306C95.154 8.43357 96.6842 7.91564 97.5142 8.82306L98.1532 9.47048C100.133 11.6738 98.2155 15.6256 97.1314 18.1531Z" fill="#CD5F37"/>
<path fill-rule="evenodd" clip-rule="evenodd" d="M75.4232 15.6909C75.4865 14.654 75.806 13.6823 76.1255 12.7107C76.3807 11.8043 76.5716 10.8958 76.5716 9.86101C76.444 9.60101 76.3164 9.47152 76.1255 9.40626C75.7417 9.27678 75.3589 9.27678 75.1037 9.08307C71.5277 9.14729 67.9527 8.5641 64.3767 9.47152C64.0572 9.601 63.7387 9.66626 63.4825 9.73049C61.8859 10.0547 60.3536 10.9611 58.8856 11.9338C55.8201 13.8118 53.6487 17.311 52.8831 20.7449C52.5003 23.0114 53.1383 25.4104 55.3086 26.5758C57.6075 28.4528 60.9916 27.3527 63.4814 26.5116C63.7377 26.5116 64.0562 26.3821 64.3757 26.2526C65.7804 25.6704 67.1207 24.2441 68.7173 23.6609C69.6749 24.3083 68.5897 25.4104 69.1001 26.3168C69.7382 27.0937 70.9519 26.9642 71.9095 26.9011C73.2509 26.8348 74.4636 26.8348 75.805 26.8348C75.8683 26.8348 75.9949 26.7705 76.1245 26.64C76.1878 26.5758 76.1878 26.4453 76.1878 26.2516H76.1245C75.167 25.6694 74.0808 25.4104 73.6347 24.3725C73.4428 22.6892 73.8899 21.2628 74.2084 19.709C74.8495 18.6058 74.8495 16.9857 75.4232 15.6909ZM69.6769 19.1248C68.3355 21.3923 66.548 23.4661 64.3777 24.6957C63.5939 25.1311 62.7562 25.4583 61.8869 25.6684C60.9937 25.7979 59.7789 25.4726 58.9489 25.0189C56.5887 23.5293 57.4177 20.4207 58.3119 18.4121C59.5247 15.7551 61.1846 13.3581 63.5468 11.738C63.7397 11.6085 64.0582 11.4138 64.3777 11.2853C65.2077 10.8958 66.1652 10.5716 67.0595 10.5084C68.2722 10.4432 69.8045 10.4432 70.5069 11.4148C72.1678 13.6823 71.0183 16.9857 69.6769 19.1248ZM15.9778 9.47048C16.8721 9.21152 17.5744 9.40522 18.2767 8.69358C18.5319 8.3041 18.7871 7.91565 18.5962 7.46194C18.2767 6.87874 17.6387 7.07348 17.1273 6.87874C16.8721 6.61977 16.5525 6.55451 16.234 6.61977C15.4674 6.61977 15.0846 7.20297 14.765 7.78616C14.4455 8.17461 14.7007 8.69359 14.8927 9.01678C15.2122 9.27575 15.595 9.47048 15.9778 9.47048ZM18.9147 19.449C19.4262 20.4849 19.9366 21.5208 21.2137 21.8471C21.6608 21.9765 22.2998 21.8471 22.6827 21.9765C23.4483 21.9765 24.1506 21.7176 24.7886 21.4565C25.8105 21.0028 26.2576 20.0312 26.768 19.1248C26.8324 17.052 26.5128 14.9129 25.6809 13.1002C25.8105 12.7759 25.491 12.4517 25.4267 12.1285C25.1715 12.1285 25.3634 11.739 25.2358 11.5443L24.1496 9.66627C23.2564 8.75885 22.6816 7.91668 21.5322 7.33349C21.277 7.26823 20.8931 6.94503 20.7012 7.39875C21.1494 9.47152 20.0632 11.1558 19.7447 13.0349C19.6804 13.0349 19.6804 13.0349 19.6171 12.9707C19.0424 14.9782 18.7239 17.3752 18.9147 19.449ZM11.4443 19.449L12.019 20.4849C12.8489 21.5208 14.126 22.0387 15.5307 21.9755C16.234 21.7797 16.8721 21.9092 17.5101 21.6502C19.2343 21.1323 17.2549 19.7712 17.5101 19.0595C16.9997 17.8942 16.7444 16.2741 17.3192 15.1077C17.702 13.1634 19.6171 11.4138 19.2332 9.47048C18.34 9.53574 17.702 10.3779 16.9353 10.6369C15.7859 11.4138 14.5088 11.9327 13.487 12.9034C11.5708 14.4592 11.1247 17.1152 11.5076 19.448H11.4443V19.449ZM17.1916 23.3366C16.8077 24.3725 17.8296 25.1515 18.4043 25.7336C19.5538 26.7695 19.2343 28.5191 19.4262 30.0087C19.5538 30.5929 19.4262 31.3056 19.7457 31.7583C20.448 30.4634 19.809 28.8433 19.8733 27.3517C20.0009 25.5389 21.8527 25.4726 21.916 23.724C20.8309 22.365 18.4676 22.6219 17.1916 23.3366ZM28.4279 23.9188C26.13 23.5956 23.8321 24.1778 22.4275 25.9926C21.7884 27.0927 21.4689 28.4528 21.7251 29.8139C22.9379 30.5276 24.5345 29.9434 25.8748 29.7507C27.0233 29.2307 27.8532 28.1928 28.4933 27.2222C28.9394 26.3158 29.5784 25.5389 29.5141 24.4367C29.3232 23.9188 28.6209 24.3072 28.4279 23.9188ZM13.5513 24.0483C12.2109 24.1778 10.551 23.5303 9.52917 24.4367C9.33725 25.9926 10.6776 27.2222 11.381 28.5823C12.5937 30.2697 14.8283 30.0087 16.7444 30.0087C16.9997 29.9444 17.3825 30.1402 17.5744 29.7518C17.702 28.5823 17.1916 27.5464 16.8077 26.5758C16.1054 25.4104 14.9559 24.3725 13.5513 24.0483Z" fill="#CD5F37"/>
<path fill-rule="evenodd" clip-rule="evenodd" d="M39.2836 18.0226C38.472 7.41012 28.3657 -1.21349 17.7653 0.140387C7.28643 0.956652 -1.20898 11.2781 0.141589 22.0397C0.988884 32.6719 11.1452 41.2157 21.7241 39.8577C32.1816 38.9917 40.6055 28.7521 39.2836 18.0226ZM37.6227 21.9102C34.0446 45.9175 0.451924 42.3562 1.80249 18.1542C5.31417 -5.92773 39.0396 -2.37988 37.6227 21.9102Z" fill="#CD5F37"/>
</svg>
