<svg width="195" height="57" viewBox="0 0 195 57" fill="none" xmlns="http://www.w3.org/2000/svg">
<path fill-rule="evenodd" clip-rule="evenodd" d="M62.7239 25.7274V1.54288H67.293L67.3218 25.7274C67.3218 32.647 61.7561 38.2356 54.9305 38.2356C48.1049 38.2356 42.5393 32.647 42.5393 25.7274C42.5393 25.2548 42.5681 24.7821 42.6279 24.2792L47.1384 25.1665C47.1384 25.4023 47.1097 25.5812 47.1097 25.7274C47.1097 30.0745 50.6249 33.6226 54.9317 33.6226C59.2374 33.6226 62.7239 30.0733 62.7239 25.7274ZM83.2126 14.9818C88.31 14.9818 92.4695 19.15 92.4695 24.2949C92.4692 26.7728 91.4938 29.1492 89.7579 30.9013C88.022 32.6534 85.6676 33.6379 83.2126 33.6383C78.174 33.6383 74.0144 29.4701 74.0144 24.2949C74.0156 19.15 78.174 14.9818 83.2126 14.9818ZM83.3013 10.3398C90.8886 10.3398 97.1273 16.5787 97.1273 24.2949V37.8959H92.5282V34.7021C90.0682 36.9481 86.8452 38.2501 83.3001 38.2501C75.684 38.2501 69.474 32.0123 69.474 24.2949C69.474 16.5775 75.684 10.3398 83.3013 10.3398ZM138.253 21.2498H151.757C150.497 17.6135 147.099 14.9818 143.056 14.9818C139.043 14.9818 135.587 17.5833 134.386 21.2498H138.253ZM156.004 29.3806L151.318 28.4631C149.795 31.5385 146.66 33.6371 143.057 33.6371C138.577 33.6371 134.768 30.2667 133.976 25.8906H156.855C156.913 25.3587 156.972 24.8571 156.972 24.2949C156.972 16.5775 150.732 10.3398 143.146 10.3398C135.53 10.3398 129.319 16.5787 129.319 24.2949C129.319 32.0111 135.53 38.2501 143.146 38.2501C148.945 38.2501 153.954 34.5848 156.004 29.3806ZM113.358 14.9915C116.024 14.9915 118.456 16.1157 120.124 17.9484C121.726 19.6701 122.616 21.9439 122.614 24.3058C122.614 29.4798 118.426 33.6492 113.357 33.6492C108.289 33.6492 104.159 29.481 104.159 24.3058C104.161 19.1609 108.32 14.9915 113.358 14.9915ZM123.583 14.844C125.867 17.3572 127.273 20.6683 127.273 24.3058C127.273 32.022 121.034 38.261 113.447 38.261C105.861 38.261 99.6209 32.022 99.6209 24.3058C99.6209 16.5884 105.831 10.3507 113.388 10.3204L104.131 0.385994H110.371L123.583 14.844ZM41.0577 48.255C40.5487 47.5417 39.9774 47.0147 39.345 46.6774C38.715 46.3413 37.9952 46.1745 37.1904 46.1745C35.9232 46.1745 34.8405 46.6484 33.9423 47.5937C33.5068 48.0385 33.1634 48.5663 32.9321 49.1464C32.7008 49.7265 32.5861 50.3473 32.5949 50.9725C32.5949 52.3579 33.0428 53.5293 33.9363 54.4819C34.8298 55.4321 35.9125 55.9096 37.1904 55.9096C37.9773 55.9096 38.6887 55.7416 39.3247 55.4115C39.9594 55.0803 40.5116 54.5847 40.9811 53.927H42.3093C41.7895 54.905 41.0901 55.6618 40.2157 56.1973C39.3414 56.7292 38.3593 56.9964 37.2682 56.9964C35.5963 56.9964 34.201 56.4197 33.0835 55.2677C31.9661 54.118 31.408 52.677 31.408 50.9556C31.408 50.1505 31.5601 49.3889 31.8619 48.6672C32.1705 47.9338 32.6222 47.2707 33.1901 46.7173C33.7315 46.1721 34.3399 45.7562 35.0142 45.477C35.7103 45.1909 36.4556 45.0471 37.2072 45.0539C38.3378 45.0539 39.3534 45.3307 40.2577 45.888C41.1619 46.4453 41.8769 47.2335 42.4027 48.2538H41.0577V48.255ZM45.7993 50.9725C45.7993 52.3688 46.2497 53.5426 47.1515 54.4904C48.0534 55.4345 49.1648 55.9096 50.4883 55.9096C51.7794 55.9096 52.8705 55.4309 53.7603 54.4735C54.6514 53.5148 55.097 52.3361 55.097 50.9387C55.097 49.6331 54.6382 48.51 53.7208 47.5659C52.8058 46.6206 51.7015 46.1503 50.408 46.1503C49.8902 46.149 49.3763 46.2411 48.8906 46.4223C48.3975 46.6074 47.9406 46.8787 47.5408 47.2238C46.9965 47.6874 46.5601 48.2666 46.2628 48.9199C45.9601 49.5611 45.8018 50.2622 45.7993 50.9725ZM44.6292 50.9568C44.6292 50.1566 44.7813 49.3925 45.0855 48.6684C45.3945 47.9361 45.8448 47.2733 46.4102 46.7185C46.9382 46.1872 47.5634 45.7643 48.251 45.4733C48.9422 45.1913 49.6816 45.0492 50.4272 45.0551C51.2225 45.0551 51.9602 45.1953 52.6417 45.4782C53.3387 45.7702 53.9723 46.1974 54.5065 46.7354C55.085 47.3096 55.5197 47.9503 55.8108 48.6612C56.1018 49.372 56.2479 50.136 56.2479 50.9568C56.2567 51.7206 56.1293 52.4798 55.8719 53.1981C55.6197 53.8845 55.2386 54.5154 54.7496 55.0561C54.2043 55.6744 53.5353 56.1688 52.7866 56.5068C52.0584 56.8332 51.2656 56.9964 50.4128 56.9964C48.778 56.9964 47.4042 56.4173 46.2952 55.258C45.1837 54.0975 44.6292 52.6637 44.6292 50.9568ZM59.1882 53.487H60.265C60.2865 54.1978 60.4865 54.7636 60.8626 55.1831C61.2411 55.6062 61.7369 55.8153 62.3513 55.8153C63.0125 55.8153 63.5382 55.6049 63.9275 55.1867C64.3143 54.7696 64.5083 54.2027 64.5083 53.4858C64.5083 52.4474 63.7107 51.658 62.1166 51.1285L61.8363 51.0342C61.0015 50.7441 60.4015 50.3778 60.0362 49.9329C59.6685 49.4892 59.4841 48.9102 59.4841 48.1945C59.4841 47.2794 59.7667 46.5311 60.332 45.9472C60.8973 45.3633 61.6291 45.072 62.525 45.072C63.3789 45.072 64.0556 45.3392 64.5575 45.8686C65.0569 46.3981 65.336 47.1476 65.3922 48.1087H64.3359C64.2796 47.4813 64.0928 47.0001 63.7814 46.6605C63.47 46.322 63.0508 46.1527 62.525 46.1527C61.9621 46.1527 61.501 46.3377 61.1465 46.71C60.7895 47.0787 60.6099 47.5514 60.6099 48.1256C60.6099 48.4242 60.6638 48.6829 60.7704 48.9017C60.877 49.1193 61.047 49.3188 61.283 49.4989C61.5225 49.6754 61.9812 49.8761 62.6591 50.0961C63.0484 50.2218 63.3442 50.3246 63.549 50.4056C64.288 50.6933 64.821 51.0632 65.1467 51.5129C65.4725 51.9614 65.6354 52.5513 65.6354 53.2839C65.6354 54.3985 65.3347 55.2979 64.7347 55.9785C64.1323 56.6603 63.3346 57 62.3393 57C61.4111 57 60.659 56.676 60.0805 56.0329C59.5008 55.3874 59.2038 54.5399 59.1882 53.487ZM70.0776 56.7679V45.2835H71.7256L75.6624 55.2689L79.586 45.2835H81.234V56.7679H80.1645V46.6254L76.1642 56.7679H75.1558L71.1555 46.6254V56.7679H70.0776ZM86.6691 50.4334H91.4514V51.5709H86.6691V55.6557H91.4514V56.7679H85.5445V45.2835H91.4514V46.4114H86.6691V50.4334ZM97.9932 56.7679H96.8769V46.4114H94.6013V45.2835H100.269V46.4114H97.9932V56.7679ZM104.512 56.7679H103.395V45.2835H104.512V56.7679ZM117.688 48.255C117.179 47.5417 116.608 47.0147 115.975 46.6774C115.346 46.3413 114.625 46.1745 113.819 46.1745C112.552 46.1745 111.471 46.6484 110.571 47.5937C110.136 48.0386 109.793 48.5665 109.561 49.1466C109.33 49.7266 109.215 50.3473 109.224 50.9725C109.224 52.3579 109.672 53.5293 110.565 54.4819C111.459 55.4321 112.541 55.9096 113.818 55.9096C114.605 55.9096 115.318 55.7416 115.952 55.4115C116.587 55.0803 117.139 54.5847 117.609 53.927H118.936C118.416 54.905 117.717 55.6618 116.842 56.1973C115.968 56.7292 114.986 56.9964 113.896 56.9964C112.224 56.9964 110.828 56.4197 109.711 55.2677C108.593 54.118 108.037 52.677 108.037 50.9556C108.037 50.1505 108.189 49.3889 108.49 48.6672C108.798 47.9338 109.25 47.2707 109.818 46.7173C110.359 46.1721 110.968 45.7562 111.642 45.477C112.338 45.191 113.083 45.0472 113.834 45.0539C114.964 45.0539 115.981 45.3307 116.885 45.888C117.79 46.4453 118.505 47.2335 119.029 48.2538H117.688V48.255ZM50.8708 0L54.0638 0.0290107L2.98822 55.7292H0L50.8708 0ZM191.807 0L195 0.0290107L143.924 55.7292H140.936L191.807 0Z" fill="white"/>
</svg>
