<svg width="247" height="446" viewBox="0 0 247 446" fill="none" xmlns="http://www.w3.org/2000/svg">
<path d="M126.556 125.054C126.778 125.519 126.871 126.041 127.019 126.544L126.76 126.655C121.481 115.871 115.962 105.236 108.813 95.5687C108.813 95.5501 108.813 95.4942 108.813 95.4569C108.813 95.4197 108.85 95.4011 108.924 95.3079C109.183 95.5873 109.442 95.8295 109.665 96.1275C110.72 97.5244 111.813 98.8841 112.795 100.318C116.518 105.757 119.759 111.475 122.778 117.324C124.093 119.857 125.315 122.446 126.538 125.035L126.556 125.054Z" fill="#E9D0B6"/>
<path d="M99.9966 363.54C99.6262 363.689 99.2373 363.801 98.8483 363.912C98.9965 363.596 99.2002 363.447 99.441 363.354C100.96 362.758 102.46 362.143 103.979 361.584C108.165 360.001 112.424 358.678 116.777 357.58C120.426 356.667 124.074 355.68 127.742 354.823C130.76 354.115 133.816 353.482 136.873 352.923C140.91 352.178 144.966 351.433 149.041 350.837C152.856 350.278 156.69 349.906 160.524 349.477C162.765 349.235 165.025 349.03 167.266 348.825C167.47 348.807 167.673 348.863 167.877 348.881L167.914 349.142C167.47 349.198 167.044 349.272 166.599 349.31C162.728 349.757 158.857 350.185 155.005 350.651C148.522 351.452 142.096 352.532 135.706 353.854C131.835 354.655 127.945 355.438 124.093 356.35C120.426 357.207 116.777 358.194 113.147 359.163C108.683 360.336 104.331 361.901 100.015 363.54H99.9966Z" fill="#E9D0B6"/>
<path d="M101.219 328.058V327.76C101.367 327.704 101.534 327.629 101.701 327.629C103.738 327.592 105.775 327.424 107.794 327.536C111.591 327.741 115.388 327.964 119.166 328.449C123.63 329.026 128.056 329.883 132.501 330.647C132.835 330.702 133.242 330.647 133.446 331.41C122.704 329.436 112.072 327.76 101.238 328.058H101.219Z" fill="#E9D0B6"/>
<path d="M87.5503 440.13C86.9576 438.9 86.5502 437.559 86.1612 436.237C85.9389 435.473 85.5685 434.821 85.124 434.169C84.4758 433.182 83.809 432.158 83.4015 431.059C81.8457 426.738 81.7161 422.379 83.2348 418.021C83.346 417.723 83.4015 417.406 83.4941 417.052C81.8643 417.071 80.3455 417.145 78.8268 417.089C75.567 416.996 72.4184 416.419 69.4735 414.929C62.1761 411.222 59.1016 402.096 59.7498 396.489C59.8054 396.061 59.8054 395.632 59.8425 395.148C55.6566 394.906 52.5451 392.82 50.0447 389.802C48.9149 388.443 48.0259 386.859 47.1924 385.276C46.0256 383.041 45.4699 380.601 44.9699 378.143C44.2846 374.697 43.7845 371.214 44.0994 367.693C44.7106 360.541 46.7294 353.799 50.3225 347.559C50.5448 347.186 50.7485 346.795 50.9708 346.367C50.6374 346.013 50.3596 345.715 50.0817 345.417C48.8593 344.132 47.8407 342.697 47.3406 340.984C46.2108 337.11 46.1182 333.18 47.3776 329.305C47.9703 327.461 48.7297 325.673 49.4705 323.885C49.9891 322.6 50.1929 321.315 49.7669 319.955C49.3965 318.745 49.0816 317.515 48.7112 316.305C46.8776 310.195 48.9334 303.639 54.0268 299.821C58.157 296.71 62.8244 294.903 67.9918 294.494C68.5475 294.456 69.0846 294.345 69.7143 294.27C69.881 293.823 70.0477 293.339 70.2329 292.854C69.492 292.37 68.8438 291.942 68.1956 291.513C66.399 290.303 64.6765 288.98 63.3615 287.248C60.324 283.225 60.4907 279.854 62.7133 276.389C63.1948 275.644 63.7505 274.936 64.3617 274.284C66.9546 271.546 70.1588 269.926 73.826 269.2C77.0673 268.548 80.327 268.659 83.5682 269.162C89.0876 270 94.4217 271.584 99.7188 273.297C109.572 276.482 119.407 279.686 129.26 282.871C129.649 283.001 130.038 283.094 130.631 283.262C130.427 282.592 130.279 282.182 130.186 281.753C130.001 280.953 129.779 280.152 129.705 279.351C129.353 275.775 131.372 272.72 134.78 271.621C136.891 270.932 139.077 270.801 141.262 270.913C147.8 271.248 153.782 273.335 159.154 277.022C168.488 283.43 175.86 291.625 180.824 301.907C183.139 306.712 185.065 311.685 186.25 316.901C187.473 322.283 187.75 327.759 187.269 333.254C187.139 334.726 187.602 335.806 188.621 336.719C189.084 337.147 189.603 337.538 190.14 337.836C191.973 338.805 193.955 339.401 196.029 339.252C199.289 339.009 202.549 338.767 205.753 338.227C210.254 337.482 214.699 336.458 219.181 335.564C226.164 334.185 233.165 332.844 240.147 331.485C242.407 331.056 244.685 330.721 246.963 330.46V332.248C246.537 332.304 246.111 332.341 245.685 332.397C236.647 333.664 227.738 335.675 218.774 337.426C213.199 338.525 207.642 339.643 202.067 340.704C199.252 341.245 196.511 341.915 193.974 343.368C187.769 346.907 184.083 354.041 185.991 361.752C186.565 364.08 186.917 366.427 186.899 368.83C186.824 378.534 183.62 386.934 176.545 393.695C173.285 396.824 169.692 399.525 165.877 401.928C160.598 405.262 155.264 408.503 149.949 411.762C145.707 414.37 141.521 417.089 137.854 420.498C131.612 426.309 124.834 431.469 118.092 436.665C115.443 438.714 112.684 440.595 109.72 442.179C106.016 444.153 102.108 445.531 97.9222 445.941C93.3289 446.388 89.5136 444.283 87.4577 440.111L87.5503 440.13ZM83.9572 422.919C83.8275 426.514 84.3461 429.718 86.1797 432.679C87.4577 432.214 88.6245 431.767 89.8099 431.375C103.886 426.7 117.314 420.423 130.816 414.351C138.113 411.073 145.374 407.683 152.338 403.716C158.561 400.177 164.414 396.154 169.655 391.237C174.693 386.506 178.953 381.197 181.62 374.734C181.768 374.362 181.916 373.97 181.972 373.505C181.879 373.579 181.768 373.635 181.713 373.728C177.304 380.638 171.47 386.17 164.969 391.05C156.857 397.141 148.004 401.965 138.799 406.119C131.668 409.341 124.389 412.135 116.925 414.5C112.591 415.879 108.239 417.201 103.868 418.449C101.089 419.231 98.2741 419.865 95.4774 420.535C92.5696 421.224 89.6432 421.895 86.7168 422.547C85.8463 422.733 84.9573 422.789 83.9387 422.938L83.9572 422.919ZM45.8218 367.582C46.2478 367.433 46.4886 367.377 46.6923 367.265C54.1564 363.186 61.9724 359.908 69.9736 357.133C75.3818 355.251 80.8456 353.5 86.3279 351.843C89.9396 350.744 93.6068 349.85 97.274 348.956C101.238 347.987 105.201 347.056 109.183 346.236C113.202 345.398 117.258 344.616 121.296 343.927C125.463 343.219 129.649 342.567 133.835 342.046C138.317 341.487 142.818 341.003 147.337 340.723C153.949 340.295 160.58 340.108 167.192 340.723C169.062 340.891 170.933 341.152 172.822 341.356C173.1 341.394 173.378 341.412 173.915 341.45C172.915 340.369 171.97 339.81 170.803 339.512C165.581 338.209 160.265 337.445 154.894 337.147C150.208 336.886 145.503 336.774 140.818 336.756C137.187 336.737 133.557 336.886 129.946 337.091C126.13 337.296 122.333 337.557 118.536 337.929C113.332 338.432 108.127 339.009 102.941 339.661C99.478 340.09 96.0331 340.649 92.6066 341.245C88.4023 341.971 84.2165 342.753 80.0492 343.61C76.2153 344.411 72.3814 345.305 68.566 346.218C65.1025 347.037 61.6575 347.875 58.2311 348.788C55.6566 349.459 53.1192 350.222 50.5077 350.967C47.9333 356.183 46.5257 361.677 45.8404 367.619L45.8218 367.582ZM52.2672 347.689C51.8783 348.36 51.5079 349.049 51.1375 349.738C51.0819 349.831 51.1189 349.943 51.1004 350.185C51.7487 350.017 52.3413 349.868 52.934 349.701C56.3049 348.751 59.6758 347.745 63.0652 346.832C65.3433 346.218 67.6584 345.696 69.9736 345.156C72.8629 344.486 75.7337 343.815 78.623 343.163C79.7343 342.902 80.8641 342.679 81.9939 342.455C85.6797 341.785 89.3469 341.058 93.0511 340.481C98.8853 339.568 104.701 338.656 110.554 337.929C115.406 337.333 120.296 336.979 125.167 336.588C128.445 336.327 131.742 336.104 135.039 336.011C138.891 335.918 142.725 335.936 146.578 335.973C152.319 336.029 158.042 336.439 163.71 337.315C165.692 337.613 167.636 338.041 169.6 338.413C169.952 338.488 170.303 338.544 170.655 338.618L170.766 338.413C170.618 338.209 170.452 338.004 170.303 337.799C168.951 335.936 167.562 334.092 166.247 332.211C165.877 331.69 165.506 331.224 164.895 330.945C161.95 329.622 159.061 328.132 156.079 326.959C144.8 322.507 133.15 319.508 121 318.856C118.222 318.707 115.443 318.651 112.665 318.782C108.053 319.024 103.59 320.123 99.2743 321.836C95.4959 323.326 92.2362 325.468 89.6803 328.672C89.0691 329.454 88.5505 330.311 87.9207 331.243C92.3658 331.243 96.6443 331.205 100.904 331.28C105.127 331.354 109.35 331.466 113.499 332.379V332.658C113.239 332.658 113.017 332.658 112.776 332.658C107.776 332.043 102.756 331.876 97.737 331.894C94.7366 331.894 91.7546 331.932 88.7542 332.043C87.4207 332.099 86.1242 332.435 84.7906 332.621C80.6048 333.217 76.419 333.776 72.2332 334.446C68.9734 334.968 65.7878 335.843 62.8059 337.37C58.2311 339.699 54.8602 343.293 52.2858 347.689H52.2672ZM167.822 331.54L168.025 331.485C167.97 331.056 167.951 330.609 167.84 330.181C167.303 327.797 167.247 325.394 167.544 322.954C167.729 321.483 167.914 319.992 167.896 318.502C167.859 313.008 165.618 308.295 162.376 304.049C159.191 299.914 155.172 296.766 150.412 294.643C148.004 293.562 145.596 292.501 143.225 291.364C139.521 289.576 136.113 287.341 133.465 284.1C133.372 283.989 133.261 283.914 133.094 283.877C133.576 285.013 134.242 286.019 135.057 286.931C137.595 289.8 140.095 292.724 142.799 295.425C145.522 298.163 148.504 300.64 151.356 303.248C154.468 306.079 157.283 309.189 159.635 312.691C161.395 315.317 162.487 318.242 163.321 321.278C164.21 324.537 165.525 327.61 167.192 330.535C167.396 330.889 167.618 331.224 167.822 331.559V331.54ZM68.0659 296.189C63.2504 296.654 58.9349 298.349 55.0454 301.236C53.6193 302.298 52.4895 303.602 51.619 305.166C51.5079 305.352 51.4523 305.557 51.3041 305.911C51.9894 305.967 52.6006 306.004 53.1933 306.079C56.8235 306.526 60.4537 306.954 64.0838 307.42C64.7876 307.513 65.4729 307.83 66.1397 308.165C61.0834 307.476 56.0456 306.768 50.8967 306.675C50.3596 307.848 50.0262 308.947 49.9891 310.232C53.6934 310.344 57.2865 310.605 60.8241 311.574C60.5277 311.574 60.2499 311.611 59.9721 311.592C57.0272 311.369 54.0823 311.126 51.1375 310.922C50.7855 310.903 50.4151 310.977 49.9891 310.996C49.6928 312.076 49.8039 313.119 50.0262 314.107C50.3596 315.559 50.73 317.012 51.193 318.409C51.9524 320.7 51.9524 322.917 50.8967 325.152C50.1743 326.698 49.6187 328.337 49.026 329.939C48.0629 332.602 48.2296 335.359 48.4704 338.227C50.1743 338.283 51.7116 338.358 53.2489 338.413V338.712C51.8042 339.121 50.2669 338.618 48.6371 339.01C49.0816 341.356 50.2484 343.2 52.0265 344.821C52.3043 344.448 52.5451 344.169 52.7488 343.889C56.6012 338.637 61.6761 335.266 67.9548 333.645C72.1776 332.546 76.4931 332.099 80.79 331.466C82.1421 331.261 83.5127 331.075 84.8647 330.926C85.8649 330.814 86.6057 330.386 87.0687 329.454C87.3651 328.877 87.7726 328.337 88.1985 327.666C80.1047 328.244 72.1776 328.076 64.2505 327.368C72.474 327.331 80.6789 327.648 88.9024 326.921C89.5506 326.251 90.1988 325.58 90.9953 324.761C87.0873 324.556 83.3275 324.723 79.6417 324.072V323.848C80.1233 323.848 80.5863 323.829 81.0678 323.848C84.198 323.923 87.3466 324.016 90.4767 324.09C91.3842 324.09 92.2177 323.885 92.9585 323.308C93.7179 322.73 94.5514 322.246 95.5885 321.576C94.9959 321.427 94.6254 321.352 94.2365 321.259C91.3842 320.607 88.5134 320.03 85.6797 319.285C82.494 318.446 79.5491 317.031 76.808 315.206C71.7887 311.853 69.3809 307.047 69.1772 301.05C69.1401 299.821 69.2142 298.591 69.2327 297.362C69.2327 297.008 69.2327 296.636 69.2142 296.189C68.7882 296.189 68.4178 296.188 68.0659 296.207V296.189ZM93.6068 273.223C89.5321 271.938 85.3648 270.969 81.1049 270.578C77.1228 270.205 73.2519 270.541 69.6217 272.44C67.0287 273.8 64.8988 275.663 63.5838 278.345C63.1763 279.183 62.8244 280.04 62.8614 281.102C68.2141 282.443 73.6593 283.262 78.9194 284.789L78.8638 285.05C73.5853 284.007 68.3252 282.964 62.8985 281.884C62.9911 282.424 63.0281 282.834 63.1578 283.206C63.5467 284.473 64.1579 285.628 65.084 286.578C65.7507 287.267 66.4546 287.937 67.1769 288.57C68.5845 289.818 70.1773 290.619 72.0665 291.048C82.6236 293.469 93.0326 296.393 103.201 300.174C103.534 300.305 103.868 300.435 104.182 300.566L104.108 300.808C103.701 300.715 103.275 300.659 102.867 300.547C98.7742 299.243 94.6995 297.828 90.5693 296.654C84.5869 294.959 78.549 293.451 72.5295 291.867C72.3258 291.811 72.1035 291.793 71.8257 291.737C71.8257 292.407 71.8072 293.003 71.7887 293.749C78.2341 295.034 84.6054 296.691 90.7175 299.225C84.4017 297.418 78.1045 295.592 71.585 294.419C71.4738 294.68 71.3442 294.866 71.3071 295.071C70.5478 299.374 70.5848 303.602 72.474 307.662C73.7334 310.381 75.7337 312.43 78.2341 314.032C81.8458 316.342 85.8278 317.739 89.9766 318.67C92.477 319.229 94.9959 319.676 97.5148 320.104C98.1074 320.197 98.7927 320.16 99.3669 319.955C102.071 318.987 104.831 318.26 107.627 317.739C107.739 317.72 107.831 317.664 108.202 317.534C107.627 317.348 107.275 317.217 106.905 317.143C103.719 316.435 100.534 315.746 97.3666 315.001C95.7923 314.628 94.218 314.2 92.6437 313.585C92.9585 313.622 93.2919 313.604 93.5882 313.678C98.7742 314.777 103.942 315.895 109.128 316.975C109.776 317.105 110.461 317.273 111.091 317.217C115.814 316.733 120.5 317.05 125.186 317.552C128.723 317.944 132.224 318.558 135.743 319.08C136.058 319.136 136.391 319.173 136.761 319.043C136.335 318.856 135.928 318.67 135.502 318.502C124.482 314.051 113.147 310.586 101.626 307.681C95.1255 306.042 88.6431 304.384 82.1421 302.745C81.605 302.614 81.0679 302.503 80.5493 302.223C81.0123 302.279 81.4753 302.316 81.9384 302.391C88.0319 303.453 94.0142 305.054 99.9966 306.582C108.442 308.742 116.87 310.903 125.093 313.846C130.223 315.671 135.28 317.72 140.392 319.657C142.058 320.29 143.725 320.905 145.429 321.427C151.523 323.308 157.561 325.375 163.284 328.281C163.469 328.374 163.691 328.43 164.043 328.579C163.951 328.225 163.914 327.983 163.839 327.759C163.228 326.12 162.58 324.5 162.006 322.842C161.784 322.209 161.339 321.892 160.858 321.538C156.098 318.204 151.152 315.224 145.985 312.579C138.539 308.761 130.76 305.762 122.87 303.043C122.093 302.782 121.333 302.503 120.574 302.223C120.537 302.223 120.518 302.186 120.537 302.074C134.983 306.265 148.689 312.076 161.247 320.905C161.172 320.384 161.172 320.141 161.098 319.899C160.913 319.322 160.691 318.782 160.506 318.204C159.932 316.454 158.913 315.112 157.431 313.958C148.041 306.694 137.632 301.385 126.445 297.604C117.907 294.717 109.239 292.296 100.441 290.377C100.015 290.284 99.5891 290.172 99.1632 290.042C99.1076 290.042 99.0891 289.949 98.9224 289.744C100.515 290.042 101.96 290.265 103.386 290.582C114.369 293.003 125.186 295.965 135.576 300.305C142.966 303.397 149.893 307.364 156.338 312.132C156.653 312.356 156.968 312.579 157.283 312.803L157.431 312.635C157.209 312.319 156.987 311.983 156.746 311.667C154.764 309.078 152.579 306.712 150.134 304.57C148.708 303.322 147.337 302 145.837 300.826C144.651 299.895 143.355 299.057 142.021 298.349C135.113 294.698 127.816 291.96 120.37 289.614C107.794 285.628 95.0885 282.089 82.2347 279.127C81.2901 278.904 80.3641 278.643 79.438 278.382C79.3454 278.364 79.2528 278.289 79.1602 278.252L79.1972 278.028C80.6974 278.345 82.2162 278.643 83.7164 278.96C98.6446 282.2 113.332 286.335 127.797 291.309C132.113 292.799 136.317 294.587 140.41 296.598C140.781 296.785 141.151 296.934 141.688 296.952C141.447 296.673 141.206 296.412 140.966 296.133C138.762 293.711 136.558 291.29 134.391 288.85C133.687 288.049 133.057 287.155 132.446 286.261C132.113 285.777 131.705 285.46 131.149 285.274C118.648 281.251 106.146 277.209 93.6253 273.241L93.6068 273.223ZM171.637 290.657C168.933 287.043 165.303 284.603 161.284 282.759C156.246 280.431 150.949 278.904 145.374 278.438C142.559 278.196 139.762 278.233 136.947 278.494C136.298 278.55 135.65 278.587 135.002 278.531C145.652 276.557 155.523 278.885 165.117 284.044C164.932 283.784 164.877 283.653 164.784 283.579C160.802 280.021 156.561 276.855 151.541 274.862C147.281 273.186 142.873 272.254 138.28 272.645C137.076 272.738 135.854 273.036 134.724 273.446C132.983 274.061 132.02 275.439 131.575 277.227C131.372 278.066 131.538 278.848 131.89 279.611C132.779 281.53 134.094 283.15 135.65 284.566C136.687 285.516 137.817 286.354 138.965 287.285C143.485 285.274 148.152 284.398 152.986 284.454C154.412 284.454 155.838 284.696 157.264 284.957C151.282 284.473 145.485 285.032 139.669 287.602C142.67 289.502 145.707 290.768 148.745 292.072C156.449 289.371 164.173 288.198 172.211 291.532C171.97 291.178 171.822 290.917 171.637 290.675V290.657ZM171.396 291.96C169.248 290.843 166.933 290.377 164.543 290.21C159.487 289.856 154.579 290.545 149.634 292.296C150.449 292.948 151.356 293.152 152.153 293.581C152.93 294.009 153.727 294.4 154.542 294.829C160.561 292.761 166.673 291.551 173.119 293.059C172.544 292.687 171.989 292.296 171.396 291.979V291.96ZM174.971 296.095C173.119 295.145 171.118 294.829 169.062 294.754C168.229 294.717 167.377 294.717 166.544 294.717C169.433 294.326 172.285 294.307 175.026 295.518C174.767 294.829 174.211 294.531 173.656 294.251C172.081 293.432 170.378 293.097 168.637 293.022C165.766 292.892 162.932 293.208 160.135 293.73C158.505 294.028 156.931 294.568 155.301 295.127C158.783 297.679 162.006 300.417 164.71 303.825C168.914 302.149 173.026 300.547 176.545 297.734C176.267 296.84 175.638 296.431 174.989 296.095H174.971ZM177.786 299.876C177.119 300.435 176.527 300.975 175.915 301.497L175.786 301.385C176.36 300.715 176.916 300.025 177.508 299.336C177.323 298.982 177.175 298.684 176.953 298.275C173.322 300.957 169.303 302.689 165.08 304.216C165.358 304.645 165.58 304.98 165.803 305.315C167.581 307.979 169.118 310.791 170.063 313.865C170.637 315.746 170.748 317.664 170.655 319.62C170.618 320.346 170.6 321.073 170.692 321.818C175.73 316.863 179.12 311.108 179.379 303.844C178.934 305.092 178.545 306.358 177.434 307.252C178.694 304.868 179.749 302.484 177.786 299.858V299.876ZM183.88 315.261C183.491 312.3 182.213 309.636 181.046 306.917C181.287 309.059 181.657 311.182 181.731 313.324C181.805 315.541 181.675 317.795 181.49 320.011C181.305 322.19 180.898 324.351 180.138 326.437C181.435 319.62 181.972 312.821 180.009 306.004C179.953 306.209 179.86 306.414 179.823 306.619C178.805 312.71 175.712 317.664 171.322 321.836C170.692 322.432 170.34 323.066 170.174 323.904C169.803 325.897 169.637 327.89 169.674 329.901C169.711 331.522 170.118 333.068 171.063 334.614C173.174 331.708 174.6 328.56 175.971 325.375C175.137 328.97 173.322 332.099 171.433 335.135C172.044 337.389 175.397 341.226 178.582 341.766L179.083 341.394C182.287 336.327 183.917 330.74 184.602 324.817C184.972 321.576 184.268 318.447 183.861 315.261H183.88ZM183.102 341.003C183.954 340.202 184.546 339.196 184.843 338.06C185.676 334.875 186.158 331.652 185.917 328.337C185.75 326.064 185.621 323.811 185.38 321.538C185.287 325.748 184.509 329.827 183.176 333.794C182.398 336.104 181.416 338.302 180.064 340.332C179.805 340.723 179.434 341.04 179.12 341.375L179.194 341.878C180.768 342.548 182.027 341.99 183.102 340.984V341.003ZM182.398 349.179C182.12 349.235 181.842 349.254 181.583 349.366C177.934 350.949 174.137 352.029 170.266 352.904C164.006 354.32 157.672 355.251 151.282 355.922C149.597 356.09 147.911 356.369 146.189 356.443C146.429 356.388 146.67 356.332 146.911 356.294C151.967 355.531 157.061 354.879 162.098 353.966C168.359 352.83 174.6 351.563 180.509 349.068C181.175 348.788 181.842 348.471 182.453 348.192C182.842 345.938 182.101 344.728 180.138 344.02C175.137 342.213 169.952 341.431 164.691 341.226C161.191 341.096 157.672 341.003 154.153 341.096C150.671 341.189 147.189 341.431 143.725 341.748C139.039 342.176 134.335 342.623 129.686 343.256C124.908 343.908 120.166 344.765 115.425 345.603C112.332 346.162 109.239 346.814 106.183 347.503C102.219 348.416 98.2556 349.403 94.3106 350.39C84.4387 352.867 74.7336 355.922 65.2136 359.517C58.972 361.864 52.8785 364.546 46.9516 367.619C46.5997 367.805 46.2478 368.029 45.8774 368.252C45.6366 370.934 46.0256 373.542 46.4516 376.224C46.7849 376.187 47.0442 376.187 47.2665 376.112C50.6374 374.92 54.0082 373.691 57.3976 372.499C57.9903 372.294 58.6015 372.201 59.2313 372.126C55.0454 373.728 50.8782 375.33 46.7479 376.895C46.7109 378.217 47.3961 381.03 48.0259 382.054C57.4902 378.124 66.8991 373.989 76.9376 371.605C67.1028 374.566 57.694 378.608 48.2481 382.65C48.2666 382.929 48.2481 383.116 48.3037 383.283C49.6928 386.841 51.8413 389.821 55.138 391.851C57.7681 393.472 60.5648 393.695 63.4911 392.857C65.7322 392.224 67.9918 391.665 70.2144 390.957C74.0483 389.709 77.8451 388.368 81.6605 387.046C91.2175 383.73 100.386 379.465 109.72 375.609C116.295 372.89 122.944 370.413 129.76 368.345C133.224 367.284 136.743 366.39 140.262 365.514C143.633 364.676 147.059 363.987 150.449 363.223C155.357 362.106 160.302 361.118 165.08 359.479C169.989 357.784 174.823 355.903 179.231 353.091C179.953 352.625 180.62 352.085 181.324 351.638C182.194 351.079 182.583 350.315 182.416 349.179H182.398ZM180.972 356.313C180.509 356.667 180.212 356.909 179.916 357.151C176.249 360.187 172.452 363.056 168.192 365.216C166.414 366.129 164.58 366.911 162.784 367.749L162.691 367.563C162.876 367.451 163.043 367.302 163.228 367.228C169.174 364.639 174.378 360.932 179.305 356.779C179.583 356.537 179.842 356.257 180.157 356.071C181.509 355.233 181.842 353.892 181.935 352.308C181.713 352.402 181.546 352.42 181.435 352.513C177.304 355.568 172.637 357.561 167.859 359.312C164.006 360.746 160.061 361.882 156.024 362.739C152.43 363.503 148.837 364.229 145.281 365.086C140.669 366.203 136.076 367.377 131.52 368.662C121.481 371.493 111.85 375.423 102.312 379.558C93.5512 383.358 84.6795 386.878 75.6226 389.914C72.048 391.106 68.4178 392.131 64.7876 393.192C63.806 393.49 62.7688 393.621 61.7687 393.826C60.8241 399.413 61.9168 404.442 65.1581 408.95C66.5472 410.887 68.3623 412.358 70.4737 413.457C71.3812 413.942 72.2702 414.016 73.2519 413.718C74.4187 413.364 75.6411 413.197 76.8265 412.88C80.364 411.93 83.9016 410.98 87.4021 409.974C89.3839 409.416 91.3286 408.726 93.2919 408.112C90.1803 409.676 86.9206 410.775 83.6053 411.725C80.3085 412.656 76.9932 413.532 73.6778 414.612C74.0483 414.705 74.4187 414.836 74.7891 414.91C78.6045 415.599 82.3829 415.45 86.1797 414.761C95.1811 413.122 103.479 409.527 111.776 405.858C117.666 403.25 123.37 400.345 128.834 396.936C137.836 391.33 147.207 386.431 156.838 382.017C160.413 380.378 163.821 378.385 167.173 376.336C172.767 372.89 176.582 367.88 179.157 361.864C179.249 361.64 179.323 361.379 179.471 360.932C179.175 361.1 179.008 361.156 178.897 361.249C172.359 367.768 164.58 372.424 156.338 376.373C149.226 379.8 141.873 382.65 134.335 385.016C128.649 386.804 122.944 388.48 117.258 390.268C110.739 392.298 104.201 394.31 97.7185 396.489C93.4215 397.942 89.2172 399.656 84.9018 401.127C85.2537 400.941 85.6056 400.736 85.976 400.587C91.9213 398.147 97.8667 395.67 103.997 393.677C108.035 392.373 112.128 391.181 116.184 389.914C120.778 388.499 125.371 387.046 129.964 385.649C136.206 383.749 142.336 381.57 148.356 379.074C155.764 376.001 162.932 372.462 169.563 367.88C173.248 365.347 176.656 362.497 179.712 359.2C180.416 358.436 180.842 357.58 180.972 356.257V356.313ZM184.102 360.951C183.861 361.249 183.768 361.323 183.731 361.417C179.508 370.767 172.933 378.124 164.654 383.991C156.375 389.858 147.652 394.943 138.243 398.817C138.039 398.911 137.836 398.985 137.613 399.06C137.521 399.097 137.41 399.115 137.224 398.985C137.687 398.762 138.15 398.501 138.613 398.296C147.911 394.049 156.727 388.983 165.006 382.948C171.952 377.882 177.638 371.661 181.694 364.024C182.398 362.72 182.972 361.342 183.583 360.057C182.842 359.424 182.361 359.424 181.916 360.038C181.675 360.355 181.527 360.765 181.379 361.137C180.175 364.248 178.638 367.172 176.675 369.873C173.971 373.616 170.526 376.522 166.581 378.869C162.932 381.048 159.209 383.023 155.338 384.736C146.189 388.778 137.502 393.714 128.982 398.929C118.666 405.225 107.646 410.012 96.2738 413.96C93.1993 415.022 89.9766 415.637 86.8094 416.456C86.4946 416.531 86.1612 416.605 85.7537 416.68C84.8091 418.449 84.2535 420.33 84.0498 422.454C84.4202 422.416 84.6795 422.435 84.9203 422.379C87.1613 421.876 89.4024 421.373 91.625 420.852C93.4215 420.423 95.2181 419.976 97.0147 419.529C98.9779 419.026 100.96 418.524 102.923 418.002C105.627 417.257 108.368 416.568 111.035 415.711C115.795 414.184 120.537 412.656 125.223 410.924C138.41 406.063 151.06 400.14 162.599 391.963C167.766 388.294 172.563 384.215 176.712 379.372C179.935 375.628 182.602 371.53 184.454 366.911C185.269 364.881 184.676 363.056 184.102 360.988L184.102 360.951ZM106.164 442.011C109.572 440.577 112.702 438.64 115.629 436.404C122.667 431.059 129.742 425.732 136.224 419.678C140.762 415.432 146.003 412.191 151.264 408.95C156.894 405.485 162.487 401.984 168.062 398.389C170.748 396.657 173.174 394.571 175.508 392.354C181.675 386.45 184.713 379.13 185.232 370.655C185.287 369.686 185.287 368.737 185.306 367.768L185.065 367.693C184.935 368.029 184.787 368.364 184.676 368.718C183.509 372.294 182.12 375.796 180.342 379.13C177.712 384.047 174.045 388.145 170.026 391.944C164.303 397.327 157.802 401.611 150.949 405.374C143.299 409.565 135.391 413.197 127.408 416.698C119.036 420.386 110.665 424.056 102.201 427.557C97.6629 429.438 92.94 430.891 88.3097 432.549C87.8837 432.698 87.4762 432.866 87.0687 433.033C86.9761 433.07 86.9206 433.201 86.9761 433.126C87.4021 434.467 87.7911 435.697 88.1615 436.926C88.6245 438.435 89.1987 439.869 90.3285 441.154C90.6804 441.042 91.0323 440.968 91.3472 440.819C95.57 438.919 99.7744 437.001 103.997 435.101C104.905 434.691 105.812 434.3 106.757 434.002C101.626 436.833 96.422 439.478 90.8656 441.731C92.5696 443.52 94.4958 444.376 96.811 444.283C100.089 444.172 103.164 443.259 106.164 441.992V442.011Z" fill="#E9D0B6"/>
<path d="M204.271 233.494C186.676 216.283 170.155 198.067 154.931 178.696C152.412 175.493 149.745 172.438 146.763 169.7C144.874 167.968 142.892 166.329 140.817 164.839C139.502 163.907 137.965 163.237 136.465 162.622C135.02 162.026 133.502 162.045 131.983 162.51C130.408 162.995 128.797 163.218 127.149 163.088C123.37 162.827 119.777 161.784 116.277 160.424C110.98 158.394 106.146 155.488 101.423 152.359C99.2557 150.925 97.0887 149.472 94.8661 148.131C90.4581 145.505 85.9944 142.99 81.5864 140.383C79.3453 139.042 77.0116 137.943 74.5668 137.03C70.0661 135.335 65.4543 134.124 60.7499 133.156C53.0451 131.591 45.2106 130.828 37.3946 129.896C30.5417 129.077 23.7073 128.164 16.8915 127.196C13.5577 126.711 10.2609 125.929 7.09374 124.737C4.98231 123.936 3.09314 122.781 1.59292 121.049C-0.0739975 119.112 -0.444423 116.914 0.537205 114.586C1.62996 111.959 3.59322 110.32 6.38993 109.762C7.07522 109.631 7.79755 109.575 8.46432 109.389C8.90883 109.259 9.37186 109.054 9.68672 108.719C10.9462 107.396 12.1315 106.018 13.3539 104.658C13.5762 104.416 13.7799 104.155 14.0022 103.894C13.9281 103.522 13.8725 103.187 13.817 102.87C13.7614 102.498 13.6873 102.144 13.6503 101.771C12.9094 95.0844 13.8911 88.6585 16.8174 82.605C17.799 80.5562 19.0029 78.6191 20.1513 76.6634C20.8365 75.5272 21.3366 74.3538 21.4292 73.0127C21.5403 71.5599 21.707 70.1257 21.8182 68.6729C22.1701 64.7242 23.1702 60.9803 24.9853 57.4414C27.4672 52.6546 31.1529 49.3019 36.2833 47.6069C42.1916 45.6512 47.9517 45.763 53.5081 48.8549C53.6563 48.948 53.8415 48.9852 54.0452 49.0784C54.249 48.8362 54.4342 48.6127 54.6194 48.3706C55.9159 46.7874 57.1753 45.1669 58.5459 43.6582C60.7314 41.2369 63.2873 39.2625 66.1952 37.7724C69.0104 36.3382 71.8997 35.0903 74.9372 34.1963C75.2706 34.1031 75.604 33.9541 75.7707 33.8982C75.7707 32.0543 75.641 30.3593 75.8262 28.7202C76.3263 24.3618 77.9747 20.5807 81.6605 17.9731C83.0866 16.9673 84.5312 15.9801 86.013 15.0674C88.9208 13.298 92.0694 12.0873 95.2551 10.9697C97.385 10.2247 99.0149 8.93951 100.145 6.96517C100.682 6.03387 101.312 5.15845 101.96 4.28303C103.034 2.83021 104.423 1.80578 106.109 1.20975C110.794 -0.466578 115.462 -0.50383 119.944 1.74991C129.908 6.74166 136.632 14.4714 139.354 25.4793C140.669 30.825 141.281 36.2637 141.651 41.7398C141.688 42.2054 141.744 42.6711 141.818 43.2112C142.095 43.0808 142.244 43.0436 142.355 42.9691C144.299 41.6839 145.596 40.0076 146.078 37.6421C146.633 34.9786 147.3 32.3337 148.078 29.726C149.152 26.1312 150.856 22.7972 153.079 19.7798C155.653 16.2781 159.746 15.1419 163.784 16.6879C167.933 18.2711 170.007 21.4748 170.563 25.7587C170.933 28.6271 170.729 31.4955 170.414 34.3639C169.507 42.373 168.118 50.3077 166.469 58.1865C163.821 70.9266 161.358 83.704 160.58 96.7421C160.172 103.522 160.006 110.302 160.024 117.1C160.024 122.334 159.857 127.531 159.339 132.746C158.653 139.656 156.005 145.598 151.245 150.627C150.578 151.335 149.856 151.987 149.282 152.75C148.633 153.607 148.004 154.501 147.559 155.47C146.392 158.04 146.485 160.685 147.318 163.33C148.448 166.943 150.43 170.091 152.708 173.053C167.859 192.871 184.546 211.347 202.123 228.986C211.402 238.299 221.348 246.886 232.183 254.336C237.091 257.707 242.036 261.023 247 264.32V266.499C244.426 264.804 241.87 263.072 239.295 261.377C226.775 253.144 214.977 244.017 204.253 233.512L204.271 233.494ZM6.2788 111.457C4.24146 111.941 2.7968 113.245 1.98187 115.2C1.25954 116.951 1.55588 118.572 2.81532 119.987C4.00069 121.328 5.44535 122.278 7.09374 122.949C9.9275 124.104 12.8909 124.83 15.8914 125.296C21.5403 126.152 27.1893 126.953 32.8569 127.68C38.3762 128.388 43.8955 128.984 49.4334 129.617C49.7112 129.654 49.989 129.617 50.2669 129.617C38.1354 124.625 25.4854 121.719 12.6501 119.466C13.1872 119.224 13.7614 119.335 14.2985 119.41C27.7635 121.328 40.8395 124.737 53.4896 129.803C54.6749 130.287 55.9899 130.474 57.2494 130.753C61.1203 131.628 64.9913 132.504 68.8622 133.379C69.2141 133.454 69.566 133.566 70.1958 133.733C69.8809 133.435 69.7698 133.268 69.6216 133.174C60.787 127.68 51.8412 122.39 42.2286 118.348C33.9867 114.884 25.3928 112.667 16.5766 111.401C14.5023 111.103 12.3723 110.972 10.2794 110.954C8.96439 110.954 7.61234 111.159 6.31585 111.475L6.2788 111.457ZM41.0803 48.203C36.4685 48.9294 32.3197 50.6057 29.097 54.3868C29.4675 54.6661 29.7638 54.871 30.0416 55.0759C32.8939 57.2738 35.7462 59.4903 38.5799 61.7068C38.9504 61.9861 39.2282 62.3773 39.5616 62.7312L39.3764 62.8988C35.8573 60.2539 32.3197 57.5904 28.671 54.8524C27.9858 55.8955 27.3931 56.7709 26.7634 57.7394C29.0785 59.3785 31.5233 60.701 33.3384 62.8429C31.0973 61.3901 28.8377 59.9373 26.4855 58.41C26.2262 58.9129 26.041 59.2668 25.8743 59.6207C24.3 62.9361 23.7259 66.4936 23.411 70.1257C23.3369 70.908 23.2814 71.6903 23.2258 72.4725C23.1147 74.5028 22.4849 76.3281 21.3551 78.0044C18.4658 82.2884 16.484 86.9635 15.5395 92.067C14.9838 95.0658 14.9468 98.0646 15.1875 101.101C15.2246 101.492 15.3357 101.883 15.4654 102.535C20.5217 97.9156 26.43 95.1217 32.7087 92.4582C29.5971 90.9308 26.5411 89.7201 23.9666 87.5968C24.1704 87.6713 24.3926 87.7458 24.5964 87.8389C27.3746 89.1614 30.1528 90.5024 32.9309 91.8062C33.2828 91.9739 33.7274 92.1043 34.0978 92.0298C35.8017 91.6945 37.4872 91.2847 39.3393 90.8563C39.0985 90.4838 38.8763 90.1299 38.6355 89.776C37.0056 87.2988 35.9499 84.6353 35.8943 81.6179C35.8943 80.7983 35.9499 79.9602 36.1351 79.1779C37.2279 74.5959 39.4875 70.7403 43.3214 67.9278C44.8401 66.8103 46.433 65.7672 48.0258 64.7428C48.8037 64.2585 49.3038 63.6439 49.489 62.7498C49.7853 61.3715 50.0817 59.9932 50.3965 58.5403C48.9333 57.0689 47.5072 55.6347 46.0811 54.2191C47.8406 54.871 48.9519 56.3425 50.4336 57.5904C50.8225 56.3052 51.1189 55.0759 51.5448 53.9211C51.9893 52.7477 52.5635 51.6115 53.1377 50.3077C49.3038 48.352 45.2846 47.5324 41.0247 48.203H41.0803ZM62.3242 105.198C64.343 106.539 66.3063 107.936 68.251 109.37C73.1962 112.984 78.4563 116.02 84.0127 118.572C87.1057 120.006 90.1617 121.552 93.1622 123.172C97.5702 125.538 101.608 128.425 105.442 131.647C105.775 131.926 106.109 132.187 106.59 132.318C106.423 132.038 106.275 131.759 106.09 131.517C103.886 128.518 101.756 125.463 99.4594 122.52C90.9767 111.68 80.4566 103.41 67.8806 97.841C60.8055 94.7119 53.3784 93.1473 45.6365 92.9983C40.0061 92.8866 34.6534 93.8737 29.4675 96.0157C29.097 96.1647 28.7451 96.3323 28.3932 96.5L28.4488 96.7235C28.8377 96.7235 29.2267 96.7235 29.5971 96.6676C41.5248 95.6059 52.3783 98.642 62.3242 105.217V105.198ZM56.7308 92.4582C51.9338 87.6713 47.2664 82.7913 43.2288 77.3525L43.414 77.1663C43.7659 77.5574 44.1363 77.9299 44.4697 78.3397C48.4147 82.8472 52.4153 87.2988 56.8234 91.3779C58.0088 92.4768 59.2682 93.2032 60.8425 93.5943C66.6767 95.103 72.0294 97.7665 77.1968 100.784C78.1229 101.324 79.0304 101.883 80.0306 102.349C68.8808 91.0612 59.1015 78.6563 49.915 65.6368C46.47 67.7602 43.0065 69.7718 40.6358 73.1803C39.1726 75.2478 38.2836 77.576 37.7465 80.0347C37.339 81.8786 37.7465 83.6667 38.3762 85.4176C39.1726 87.6713 40.4506 89.6084 42.0805 91.3965C46.9886 91.2661 51.8597 91.5082 56.7493 92.4582H56.7308ZM123.852 5.97799C123.593 5.75448 123.444 5.58685 123.259 5.47509C121.611 4.56242 120.018 3.50074 118.277 2.77433C114.443 1.15388 110.554 1.26563 106.683 2.71845C105.294 3.23998 104.145 4.09677 103.275 5.30746C102.645 6.18288 102.034 7.07692 101.478 8.00822C100.237 10.1129 98.4778 11.5658 96.1997 12.4226C94.5328 13.0558 92.8473 13.6146 91.236 14.3783C89.1986 15.3468 87.2354 16.483 85.2536 17.5633C84.9758 17.7123 84.735 17.9545 84.5312 18.2525C85.6055 17.9917 86.6427 17.6378 87.7354 17.5074C89.569 17.3026 91.4212 17.1163 93.2548 17.1535C95.4403 17.1722 97.6073 17.4888 99.7928 17.5633C101.145 17.6006 102.534 17.5261 103.886 17.3398C105.683 17.1163 107.146 16.185 108.35 14.8253C109.516 13.5215 110.665 12.2177 111.887 10.9697C112.795 10.0384 113.758 9.16302 114.777 8.36211C117.332 6.35051 120.259 5.71723 123.444 6.08975C123.519 6.08975 123.574 6.0525 123.815 5.97799H123.852ZM116.888 8.49249C115.906 9.0699 114.98 9.81493 114.165 10.6158C112.739 12.0128 111.295 13.447 110.054 15.0116C107.868 17.7682 105.053 19.0348 101.608 18.9416C99.6446 18.8858 97.6814 18.8299 95.7366 18.5877C90.8285 17.9545 86.3278 19.0534 82.0679 21.4934C79.8824 22.7413 78.4563 24.5294 77.8636 26.988C77.4376 28.7761 77.308 30.6015 77.4932 32.4268C77.5302 32.7062 77.6228 32.9856 77.7339 33.414C83.4385 32.4268 88.9764 32.967 94.4957 35.0158C94.4031 34.6992 94.3661 34.4943 94.292 34.308C93.1437 31.6818 92.3102 28.9438 91.6064 26.1685C91.4953 25.7401 91.4767 25.2931 91.5879 24.7902C91.6805 25.0323 91.7731 25.2744 91.8657 25.5166C92.8844 28.4222 93.903 31.3279 94.9402 34.2335C95.2736 35.1834 95.9033 35.8354 96.8294 36.3196C100.293 38.1263 102.904 40.9389 105.294 43.9562C108.887 48.4823 111.276 53.6231 113.147 59.0432C113.684 60.5892 114.202 62.1538 114.795 63.6811C114.999 64.2213 115.314 64.7987 115.74 65.1712C118.925 67.9837 121.315 71.4481 123.741 74.8753C124.019 75.2664 124.278 75.6576 124.556 76.0301L124.815 75.9556C124.908 74.8939 124.945 73.8136 125.093 72.7519C125.315 71.057 125.649 69.362 125.852 67.6671C125.945 66.9779 125.963 66.2515 125.815 65.581C123.908 57.6649 120.722 50.2146 117.332 42.8387C117.203 42.5407 117.073 42.224 116.944 41.926C116.944 41.9074 116.981 41.8701 117.073 41.7398C120.981 49.1901 124.241 56.8454 126.426 65.1712C126.63 64.7428 126.723 64.5565 126.815 64.3516C127.371 62.9733 127.908 61.5764 128.501 60.2167C128.797 59.5648 128.834 58.9501 128.667 58.261C126.093 47.9981 122.981 37.9401 118.759 28.236C118.703 28.1242 118.666 27.9938 118.685 27.8448C121.24 32.5572 123.148 37.5489 124.797 42.6338C126.426 47.6814 127.871 52.7663 129.427 57.9071C129.575 57.7022 129.742 57.5159 129.853 57.311C131.168 54.7034 132.798 52.3007 134.724 50.1214C135.15 49.6372 135.28 49.1156 135.243 48.501C135.02 43.8817 134.354 39.3184 133.353 34.8109C131.742 27.4909 129.538 20.3758 126.612 13.4656C125.704 11.3423 124.741 9.25616 123.463 7.26318C121.092 6.81616 118.888 7.30043 116.851 8.49249H116.888ZM137.873 25.9264C136.132 19.1279 132.816 13.298 127.501 8.67875C126.593 7.89646 125.593 7.43081 124.334 7.37494C130.946 20.3386 134.928 33.9728 136.02 48.4824C136.169 48.4265 136.298 48.4265 136.372 48.352C137.743 46.9923 139.132 45.6512 140.503 44.2729C139.817 38.1263 139.41 31.9425 137.873 25.9077V25.9264ZM149.43 31.123C148.856 33.3954 148.244 35.6677 147.763 37.9587C147.244 40.4173 146.096 42.3917 144.059 43.8445C141.466 45.6885 139.243 47.9422 137.076 50.2332C134.539 52.8967 132.483 55.8955 130.946 59.2295C130.834 59.4903 130.76 59.751 130.594 60.2353C130.89 60.0118 131.02 59.9559 131.094 59.8628C133.742 56.7709 136.965 54.4054 140.484 52.431C141.355 51.9468 142.151 51.3321 142.984 50.7733C145.966 48.7617 147.726 45.912 148.633 42.4662C149.282 40.0076 149.393 37.4558 149.615 34.9413C149.745 33.2836 149.893 31.6073 150.041 29.9496L149.856 29.8751C149.726 30.2848 149.56 30.6946 149.448 31.123H149.43ZM141.169 53.9025C146.559 68.7474 151.652 83.6109 154.616 99.1449C154.616 98.7351 154.616 98.344 154.616 97.9342C154.245 91.1171 153.875 84.3 153.505 77.4829C153.375 75.0988 153.282 72.7147 153.171 70.3306C152.69 60.9431 152.227 51.5556 151.745 42.1682C151.745 41.9074 151.708 41.6466 151.671 41.3859C150.875 44.1425 149.541 46.6011 147.8 48.8735C146.059 51.1459 143.54 52.4124 141.188 53.9025H141.169ZM155.449 141.388C156.672 138.706 157.283 135.875 157.598 132.97C158.172 127.847 158.32 122.707 158.339 117.547C158.357 111.214 158.579 104.863 158.728 98.5302C158.728 98.2322 158.765 97.9342 158.746 97.6362C158.69 94.2463 158.616 90.8563 158.579 87.4478C158.524 82.9031 158.394 78.3397 158.468 73.795C158.542 68.8405 158.765 63.9046 159.302 58.9688C159.931 53.3251 160.45 47.6628 161.098 42.0005C161.728 36.4686 162.469 30.9367 163.932 25.5352C164.099 24.8833 164.302 24.25 164.506 23.6167C164.58 23.3932 164.728 23.207 164.858 23.0021C164.932 23.0207 164.988 23.058 165.062 23.0766C164.765 24.3618 164.414 25.6283 164.191 26.9322C163.395 31.2347 162.561 35.556 161.913 39.8772C161.432 43.025 161.228 46.2286 160.895 49.4137C160.598 52.3007 160.283 55.1877 160.024 58.0747C159.82 60.2167 159.654 62.3773 159.542 64.5379C159.376 67.9651 159.191 71.3736 159.172 74.8008C159.172 78.8985 159.32 82.9962 159.413 87.0939C159.413 87.2057 159.468 87.2988 159.542 87.5782C159.913 85.0637 160.228 82.6982 160.58 80.3513C161.876 71.951 163.525 63.6066 165.284 55.2994C166.821 47.9981 168.081 40.6408 168.822 33.2277C169.099 30.527 169.303 27.8076 168.822 25.0882C168.118 21.214 165.562 18.4946 161.821 17.7496C159.487 17.2839 157.505 17.8986 155.949 19.7984C154.116 22.0522 152.616 24.4922 152.264 27.4351C152.06 29.2045 151.949 31.0112 152.023 32.7993C152.356 41.5163 152.69 50.2518 153.134 58.9688C153.634 68.617 154.245 78.2652 154.801 87.8948C155.171 94.2649 155.505 100.635 155.857 107.005C155.968 109.054 156.19 111.103 156.264 113.152C156.357 115.536 156.357 117.92 156.338 120.304C156.338 122.614 156.338 124.923 156.227 127.233C156.042 130.716 155.764 134.217 155.449 137.701C155.301 139.284 154.986 140.848 154.894 142.487C155.079 142.115 155.301 141.761 155.468 141.388H155.449ZM146.818 151.391C147.837 149.845 148.522 148.168 149.041 146.399C150.004 143.139 150.43 139.787 150.671 136.397C150.949 132.634 150.856 128.872 150.578 125.109C150.356 121.999 149.967 118.888 149.541 115.778C148.467 107.787 146.559 100.002 144.059 92.3464C141.873 85.6038 139.169 79.0847 135.854 72.8451C135.78 72.6961 135.706 72.5284 135.743 72.3049C135.946 72.6216 136.15 72.9382 136.354 73.2735C140.151 79.718 142.91 86.6096 145.188 93.7061C146.8 98.6978 148.152 103.764 149.133 108.923C149.8 112.462 150.3 116.039 150.782 119.615C151.115 122.092 151.375 124.588 151.467 127.065C151.689 132.876 151.597 138.688 150.282 144.406C149.763 146.697 149.004 148.913 148.022 151.074C150.597 149.081 152.838 146.809 153.579 143.53C154.116 141.184 154.56 138.799 154.838 136.397C155.19 133.361 155.357 130.325 155.542 127.27C155.634 125.817 155.616 124.364 155.597 122.912C155.523 118.777 155.523 114.623 155.264 110.507C155.079 107.508 154.579 104.509 154.06 101.548C153.393 97.7107 152.634 93.8737 151.801 90.0554C150.449 83.8716 148.596 77.8182 146.652 71.8206C144.892 66.4191 143.021 61.0362 141.188 55.6533C141.04 55.2063 140.817 54.7779 140.632 54.3495C135.632 56.3239 128.705 63.2527 127.278 69.8835C130.205 74.5214 132.835 79.3828 135.224 84.3931C137.595 89.3476 139.78 94.3766 141.503 99.5919C137.298 89.8505 132.89 80.2023 127.297 71.1687C127.223 71.1687 127.149 71.1874 127.075 71.206C127.019 71.5226 126.908 71.8393 126.889 72.1373C126.778 73.9999 126.704 75.8625 126.612 77.7251C126.556 78.7309 126.871 79.6063 127.445 80.4444C132.372 87.5968 136.187 95.3452 139.243 103.466C141.929 110.637 143.781 118.05 144.929 125.631C145.689 130.623 145.855 135.652 145.466 140.699C145.263 143.307 144.911 145.877 144.707 148.485C144.633 149.36 144.762 150.254 144.874 151.13C144.929 151.577 145.207 151.968 145.726 152.042C146.263 152.136 146.522 151.763 146.781 151.372L146.818 151.391ZM141.929 151.297C143.059 147.852 143.855 144.331 143.911 140.681C143.948 138.483 144.096 136.285 144.04 134.087C143.929 128.667 143.021 123.34 141.836 118.05C139.502 107.601 135.724 97.7107 130.446 88.435C127.075 82.5119 123.296 76.831 119.166 71.4109C117.833 69.66 116.369 68.021 114.739 66.5495C114.128 65.9907 113.647 65.2271 113.313 64.4634C112.684 62.9919 112.202 61.4646 111.683 59.9373C109.85 54.4985 107.479 49.3391 103.867 44.8317C101.256 41.5535 98.2926 38.7596 94.4587 36.9529C90.5507 35.1276 86.4389 34.6619 82.2161 34.6805C82.0494 34.6805 81.8642 34.755 81.4938 34.8295C81.8642 35.2207 82.1235 35.5187 82.4013 35.7795C99.552 52.431 113.869 71.2432 125.426 92.216C130.501 101.417 134.817 110.972 137.984 121.03C139.262 125.072 140.28 129.188 141.058 133.361C141.762 137.179 142.021 141.053 142.003 144.927C142.003 147.349 141.688 149.751 141.151 152.117C141.114 152.322 141.095 152.527 141.058 152.732L141.243 152.806C141.466 152.322 141.744 151.838 141.91 151.335L141.929 151.297ZM139.188 155.824C139.817 154.11 140.391 152.359 140.706 150.59C141.429 146.492 141.429 142.394 140.984 138.241C139.928 128.555 137.021 119.41 133.372 110.469C129.149 100.095 123.815 90.2976 117.87 80.817C108.535 65.9721 97.7184 52.3193 85.5499 39.7282C84.2349 38.3685 82.8829 37.0274 81.5678 35.6677C81.29 35.3697 81.0307 35.0531 80.7899 34.7737C75.2706 35.3324 70.5106 37.5117 65.6395 40.0262C66.0285 40.3801 66.2693 40.6408 66.5286 40.8643C76.7894 49.7862 85.9018 59.751 93.7549 70.8707C95.4218 73.2362 96.8664 75.7693 98.4222 78.228C98.626 78.5632 98.7926 78.9357 98.8853 79.3455C89.5876 64.6683 78.1044 51.9468 65.0098 40.4732C63.1947 41.7211 61.5463 43.0063 59.9905 44.7013C64.5097 48.054 68.7696 51.5929 72.4924 55.7278L72.3072 55.97C72.0294 55.7278 71.733 55.5043 71.4552 55.2622C68.8437 52.9526 66.2507 50.6057 63.5837 48.3333C62.3242 47.253 60.9351 46.3031 59.6016 45.2973C59.3979 45.4277 59.2497 45.4836 59.1571 45.5953C57.6569 47.5324 56.1011 49.4323 54.712 51.4625C53.3599 53.4182 52.7302 55.6906 52.2857 58.0374C52.0634 59.2109 51.8782 60.3843 51.6004 61.5578C51.3041 62.7871 50.9336 63.9791 50.5262 65.3761C51.2855 66.4564 52.1375 67.7229 53.0451 68.9336C59.7498 77.9299 66.6397 86.74 74.2149 95.0099C76.5486 97.5617 78.9563 100.058 81.3826 102.516C82.8829 104.006 84.4386 105.459 86.087 106.781C92.9029 112.22 98.8667 118.479 103.886 125.612C106.201 128.909 108.553 132.169 110.831 135.465C113.11 138.744 115.61 141.835 118.221 144.853C118.351 145.021 118.499 145.17 118.647 145.337L118.777 145.244C118.759 145.151 118.777 145.039 118.703 144.965C114.888 139.302 111.869 133.193 108.739 127.14C103.756 117.566 98.0148 108.495 91.1804 100.132C88.0318 96.2765 84.6979 92.5513 81.1604 89.031C81.0122 88.882 80.8455 88.7143 80.8085 88.3977C81.0863 88.6212 81.3826 88.8075 81.6419 89.0496C84.2164 91.6759 86.8835 94.2276 89.3283 96.9843C97.385 106.092 103.923 116.243 109.535 127.009C110.683 129.226 111.85 131.424 112.98 133.659C115.758 139.116 119.036 144.275 122.574 149.249C124.741 152.303 127.575 154.743 130.649 156.867C131.372 157.37 132.205 157.686 133.094 158.133C133.39 156.867 132.983 155.842 132.761 154.818C131.149 147.125 128.093 139.936 124.926 132.783C121.148 124.271 116.462 116.299 111.146 108.681C104.145 98.6233 96.8479 88.7889 88.9578 79.42C86.0315 75.9556 82.9569 72.6216 79.938 69.2316L79.975 69.1385C80.7344 69.8835 81.5123 70.61 82.2717 71.3736C87.6984 76.7938 92.6065 82.6982 97.2924 88.7516C103.386 96.6117 109.35 104.546 114.814 112.854C121.87 123.582 127.334 135.074 131.427 147.237C132.372 150.012 132.983 152.899 133.687 155.749C133.89 156.531 133.909 157.369 134.02 158.208C134.372 158.282 134.631 158.319 134.928 158.375C135.743 157.053 136.076 155.6 136.113 154.184C136.187 151.242 136.224 148.28 135.946 145.374C135.502 140.96 134.224 136.713 132.687 132.541C129.927 125.109 126.352 118.106 122.37 111.289C121.166 109.24 119.981 107.191 118.851 105.068C119.11 105.385 119.388 105.701 119.611 106.055C125 114.493 129.945 123.191 133.427 132.634C134.835 136.453 135.983 140.327 136.539 144.369C137.076 148.187 137.298 152.005 136.632 155.842C136.483 156.662 136.224 157.463 135.965 158.468C137.558 158.059 138.613 157.202 139.113 155.861L139.188 155.824ZM130.89 161.206C131.372 161.132 131.909 160.964 132.131 160.219C131.89 160.108 131.705 159.959 131.501 159.921C122.981 158.338 115.462 154.445 108.405 149.603C101.83 145.076 95.3847 140.327 88.9023 135.67C81.8457 130.604 74.8446 125.426 67.6954 120.472C60.1387 115.238 52.2857 110.507 43.9511 106.632C42.8213 106.111 41.673 105.608 40.5432 105.087L40.6173 104.863C41.0988 104.993 41.5804 105.087 42.0434 105.273C46.1551 106.819 50.0446 108.812 53.8785 110.954C62.6761 115.89 70.9737 121.57 79.123 127.512C88.4022 134.273 97.6999 141.016 107.053 147.665C112.017 151.204 117.258 154.333 122.963 156.55C124.963 157.314 127.038 157.891 129.093 158.543C129.334 158.617 129.575 158.617 130.02 158.673C129.742 158.375 129.631 158.189 129.482 158.077C125.408 154.93 121.759 151.316 118.37 147.461C116.406 145.225 114.462 142.972 112.554 140.681C107.424 134.515 101.256 129.58 94.3846 125.556C90.9581 123.563 87.4021 121.757 83.7904 120.099C77.6599 117.287 71.8442 113.934 66.4174 109.929C63.0095 107.415 59.5275 104.993 55.7492 103.075C49.1926 99.7409 42.2472 97.9901 34.8942 97.7293C31.3937 97.5989 27.9302 97.8597 24.5223 98.6792C22.8183 99.089 21.0032 100.113 20.0401 101.231C29.8008 104.248 39.3578 107.731 48.0814 113.17C38.8578 108.383 29.2082 104.658 19.3363 101.79C17.5212 102.702 11.8722 108.402 10.9832 110.209C11.5018 110.283 11.9834 110.414 12.4834 110.432C17.0952 110.581 21.5959 111.475 26.0781 112.444C36.8204 114.772 46.8404 119 56.3789 124.42C61.9353 127.568 67.362 130.939 72.8814 134.162C73.9371 134.776 75.0298 135.372 76.1596 135.801C82.2902 138.166 87.9762 141.37 93.4585 144.965C96.496 146.958 99.515 149.006 102.552 151.018C107.516 154.333 112.61 157.351 118.259 159.362C121.407 160.48 124.611 161.449 128.001 161.542C128.982 161.56 130.001 161.411 130.983 161.244L130.89 161.206Z" fill="#E9D0B6"/>
</svg>
