<svg width="94" height="107" viewBox="0 0 94 107" fill="none" xmlns="http://www.w3.org/2000/svg">
<path d="M57.3922 98.3437C57.9029 98.4284 58.2327 98.1954 58.5519 97.9305C59.9137 96.8075 61.2862 95.6845 62.6587 94.5721C62.8183 94.445 62.9885 94.3284 63.2013 94.1695C63.329 94.6886 63.1588 95.0806 62.9885 95.462C62.7119 96.0977 62.4034 96.7333 62.1161 97.369C62.031 97.5491 61.9991 97.7504 61.9459 97.9517L62.0842 98.0364C62.2012 97.9305 62.3395 97.8457 62.414 97.7292C62.8821 96.9664 63.3396 96.2036 63.7759 95.4302C64.0312 94.9641 64.1802 94.4555 64.095 93.9152C64.0418 93.5232 64.1802 93.2478 64.4781 93.0041C65.01 92.5486 65.5207 92.0718 66.0421 91.6057C66.1378 91.5209 66.2549 91.4573 66.3612 91.3726C66.6272 91.807 66.9039 92.1989 67.1379 92.6227C67.3294 92.9723 67.372 93.3537 67.2762 93.7563C67.0954 94.4344 66.9145 95.1018 66.7443 95.7798C66.6804 96.0129 66.6485 96.2566 66.606 96.5003L66.7124 96.5532C66.7868 96.4685 66.9145 96.4049 66.9464 96.3096C67.2975 95.3031 67.6699 94.3072 67.9784 93.2902C68.138 92.7605 67.9572 92.2625 67.6061 91.8176C67.3826 91.5315 67.1698 91.2349 66.9145 90.8958C67.6273 90.3873 68.3721 90.0377 69.1169 89.7305C69.319 89.6457 69.6063 89.7517 69.7978 89.7622C70.1276 90.0377 70.117 90.3555 70.1276 90.6628C70.1276 91.1819 70.3085 91.648 70.5851 92.0824C70.6809 92.2307 70.8298 92.3473 70.9469 92.4744L71.1065 92.4002C71.0745 92.2307 71.0533 92.0612 71.0107 91.8917C70.9043 91.4256 70.8298 90.9488 70.6915 90.4827C70.5532 90.0059 70.3511 89.5504 70.1489 89.01C70.1489 89.01 70.234 88.8935 70.3298 88.8088C70.9256 88.2578 71.3724 87.6116 71.7023 86.87C71.947 86.2979 72.33 85.8741 72.8301 85.5033C73.362 85.1113 73.8302 84.6346 74.277 84.1578C74.7132 83.7023 75.0431 83.1726 74.9367 82.4733C75.6602 82.0496 76.4049 81.7317 77.1922 81.5092C78.203 81.2232 79.2031 80.8948 80.2032 80.6087C80.8948 80.4074 81.5863 80.2167 82.2886 80.0472C82.4694 80.0048 82.6716 80.0472 82.8631 80.0472C83.0333 80.0472 83.1929 80.0472 83.3525 80.0472C83.5015 79.7082 83.2887 79.5705 83.0865 79.4645C82.6503 79.2209 82.1822 79.242 81.7247 79.4116C81.4374 79.5175 81.1608 79.6764 80.8948 79.8247C79.9372 80.3756 78.9052 80.7041 77.82 80.8736C76.8731 81.0219 75.9581 81.2762 75.1282 81.7741C75.0431 81.8271 74.9473 81.8483 74.8516 81.88C74.8196 81.88 74.7771 81.8695 74.6813 81.8483C74.7345 81.7317 74.7558 81.6046 74.8196 81.5092C75.1495 81.1278 75.4474 80.7147 75.8304 80.3862C76.9901 79.3798 77.82 78.1085 78.6499 76.8477C79.2137 75.9896 79.7564 75.1208 80.3415 74.2627C81.1076 73.1185 82.246 72.663 83.5759 72.5888C83.8632 72.5676 84.1824 72.6418 84.3207 72.1862C84.2143 72.1015 84.1079 71.9319 83.9696 71.9108C83.6291 71.8472 83.2674 71.773 82.9376 71.8366C81.7779 72.0273 80.8097 72.5782 80.1394 73.5635C79.6074 74.3475 79.1073 75.1632 78.6073 75.9684C77.6497 77.5575 76.522 78.9984 75.0856 80.1955C74.7984 80.4286 74.5005 80.6723 74.2983 80.9689C73.9685 81.4457 73.5216 81.5516 72.9152 81.6046C73.0216 81.3185 73.1067 81.0855 73.1918 80.863C77.671 69.8025 81.7672 58.6042 85.7783 47.3636C88.5339 39.6509 90.7363 31.7687 92.4493 23.7594C93.194 20.4328 93.7473 17.1167 93.9281 13.7583C94.0771 11.1203 94.0558 8.48235 93.2579 5.91851C92.96 4.95443 92.5663 4.02213 91.9705 3.19577C90.4065 1.02392 88.2892 -0.0990793 85.5868 0.00686429C84.5441 0.0492417 83.5759 0.430639 82.6503 0.907385C80.6288 1.95623 78.8414 3.3229 77.2454 4.94383C76.2666 5.9397 75.3303 6.97795 74.3941 8.0162C72.9258 9.63713 71.3512 11.1203 69.5744 12.4023C68.2551 13.3558 66.8507 14.1291 65.3931 14.839C62.4034 16.3116 59.4988 17.9219 56.8283 19.9243C54.7749 21.471 52.7214 23.0178 51.1681 25.1049C50.6042 25.8677 50.1041 26.6835 49.5828 27.478C49.4764 27.6369 49.3806 27.7959 49.2423 28.0183C49.0402 27.7959 48.8912 27.6369 48.7423 27.4568C46.6037 25.0095 44.5184 22.5305 42.3267 20.1361C41.2308 18.939 39.9647 17.8901 38.7305 16.8201C37.9538 16.1421 37.0495 15.6229 36.0813 15.2521C33.8895 14.394 31.8574 14.9237 30.3785 16.7565C29.5699 17.763 28.9741 18.8966 28.474 20.0832C27.9208 21.3863 27.4207 22.7106 26.8888 24.0243C26.1334 25.8889 25.1545 27.6158 23.9416 29.2261C22.8245 30.7199 21.5052 32.0018 19.9837 33.0613C19.4943 33.4109 18.9943 33.7499 18.5049 34.0995C15.7386 36.0383 14.9087 39.0894 15.7599 42.1194C16.1854 43.6344 16.9515 44.9799 17.8665 46.2512C19.239 48.1476 20.8243 49.8533 22.5479 51.4319C23.665 52.4595 24.8034 53.4554 25.9312 54.4724C26.0908 54.6102 26.2291 54.7585 26.4951 55.0022C26.2504 55.0022 26.1546 55.0022 26.0482 55.0022C25.0907 54.8856 24.1438 54.9068 23.2075 55.1187C21.452 55.5107 19.6858 55.6696 17.8771 55.4683C16.0684 55.267 14.3023 55.5531 12.5999 56.1675C11.5147 56.5701 10.6742 57.3329 9.86559 58.1275C8.65269 59.3141 7.82281 60.7231 7.5781 62.4182C7.50362 62.9691 7.48235 63.5412 7.51426 64.1027C7.58874 65.4588 7.25892 66.6877 6.40776 67.7472C4.63096 69.9826 3.51382 72.5676 2.41795 75.1526C1.32208 77.7588 0.545403 80.4498 0.18366 83.2573C-0.412151 87.9506 0.417727 92.3261 3.0244 96.3307C3.74789 97.4432 4.62032 98.439 5.65235 99.276C6.28008 99.7951 6.93974 100.293 7.53555 100.844C8.00368 101.278 8.48246 101.734 8.81228 102.274C9.99327 104.245 11.7807 105.071 13.9937 105.061C15.43 105.061 16.8664 104.933 18.3027 104.827C18.6964 104.796 19.0049 104.902 19.3454 105.071C20.1433 105.474 20.9519 105.855 21.7924 106.173C22.6755 106.512 23.5799 106.491 24.4842 106.194C25.3141 105.919 26.144 105.654 26.9845 105.4C27.3143 105.304 27.6654 105.251 28.0165 105.209C28.3996 105.156 28.7507 105.283 29.0379 105.548C30.6232 107.063 32.5277 107.243 34.5386 106.766C35.6557 106.501 36.7622 106.162 37.8155 105.739C40.486 104.658 43.2736 104.054 46.1037 103.567C47.7847 103.281 49.4551 102.857 51.0936 102.37C53.3492 101.691 55.2855 100.441 56.9772 98.8098C57.1155 98.6721 57.2326 98.5132 57.3815 98.3437H57.3922ZM65.1271 15.9937C65.2122 16.8201 65.2973 17.5087 65.3505 18.1974C65.4782 19.7971 65.5739 21.4075 65.7016 23.0072C65.8506 24.7977 66.0208 26.5987 66.2017 28.3891C66.4144 30.6246 66.6698 32.86 66.8719 35.0954C67.0741 37.3732 67.4571 39.6298 67.8721 41.8652C68.3615 44.4714 68.8722 47.0776 69.319 49.6838C69.7659 52.3006 70.1383 54.928 70.5426 57.5448C70.8937 59.8438 71.2448 62.1428 71.2767 64.4735C71.2873 65.48 71.3405 66.4864 71.3086 67.5035C71.2448 69.3787 71.1384 71.2645 71.0533 73.1397C71.0001 74.4958 71.0213 75.8625 70.9149 77.2079C70.7341 79.3268 70.4787 81.4457 70.2447 83.5646C70.234 83.7129 70.1702 83.8506 70.1276 84.0307C70.0744 83.9565 70.0425 83.9354 70.0319 83.9036C69.8297 82.2297 69.6276 80.5557 69.4361 78.8818C69.2233 77.0384 69.0424 75.1844 68.8083 73.341C68.4998 70.8831 68.1168 68.4358 67.8082 65.9779C67.4252 62.9585 66.9677 59.9603 66.3825 56.9727C65.8399 54.1864 65.1058 51.4637 63.9035 48.8786C63.2439 47.459 62.531 46.0499 61.882 44.6197C61.6373 44.0582 61.4352 43.4543 61.3607 42.8504C61.1266 40.9117 60.9351 38.9623 60.7862 37.0129C60.6478 35.2119 60.584 33.4109 60.5095 31.6098C60.318 27.3085 60.3819 23.0072 60.5414 18.6953C60.5414 18.6211 60.5734 18.547 60.5946 18.441C62.031 17.5829 63.4992 16.7459 65.1271 15.9726V15.9937ZM71.298 79.4116H71.2235C71.2235 79.3268 71.2235 79.2421 71.2235 79.1679C71.4469 75.7247 71.681 72.2816 71.9044 68.8384C72.0002 67.387 72.064 65.9355 72.1598 64.4841C72.2981 62.3758 72.5215 60.2676 72.5641 58.1593C72.6598 53.0952 72.6279 48.0417 72.1491 42.9882C71.8725 40.0217 71.7235 37.0341 71.5533 34.0571C71.4256 31.8323 71.3618 29.6075 71.266 27.3721C71.0852 23.1555 71.1703 18.9602 71.7767 14.7754C71.9363 13.6312 72.1598 12.54 72.7449 11.5123C73.2663 10.6012 74.0323 10.1457 75.0324 10.0079C75.5538 9.93378 75.8942 10.1245 76.1283 10.5906C76.256 10.8449 76.373 11.1203 76.4581 11.3958C76.7454 12.3387 76.756 13.3028 76.7347 14.2775C76.6922 16.1527 76.5964 18.0385 76.6177 19.9137C76.6283 21.8736 76.7454 23.8336 76.8199 25.7829C76.8518 26.6517 76.905 27.531 76.9795 28.3997C77.1922 30.8576 77.4157 33.3049 77.405 35.7734C77.405 38.4962 77.2667 41.1977 77.0114 43.8993C76.8199 45.944 76.5752 47.9887 76.3198 50.0228C76.0645 52.0993 75.7985 54.1758 75.4686 56.2417C74.809 60.3947 74.1174 64.5477 73.4152 68.6901C72.979 71.2645 72.5002 73.8389 72.0108 76.4134C71.8193 77.4198 71.5427 78.4051 71.298 79.401V79.4116ZM15.9195 93.2796C15.9939 92.5592 16.0897 91.9659 16.1003 91.362C16.1216 90.3873 16.6855 89.8258 17.4835 89.455C18.3985 89.0206 19.356 88.6922 20.3668 88.5651C22.2925 88.3214 24.2289 88.0777 26.1546 87.8341C28.1761 87.5798 30.2083 87.3044 32.2298 87.0713C33.8363 86.8912 35.3472 86.478 36.6877 85.5139C37.4112 84.9948 38.1985 84.5498 38.9646 84.0943C40.2626 83.3209 41.6776 82.8229 43.1459 82.5157C44.8482 82.1555 46.5505 82.2826 48.2635 82.4521C48.9019 82.5157 49.4657 82.7276 50.0084 83.0348C51.8703 84.0837 53.7428 85.1219 55.6154 86.1602C58.6476 87.8447 61.882 88.8829 65.3718 89.0736C65.7548 89.0948 66.1272 89.1478 66.6166 89.1902C66.4357 89.3173 66.3506 89.3914 66.2655 89.4444C64.9036 90.3661 63.3928 90.8641 61.765 91.0865C59.7116 91.3514 57.6794 91.2455 55.7218 90.5462C53.6151 89.7834 51.466 89.2007 49.2955 88.6498C47.0293 88.0671 44.7525 88.0566 42.4756 88.4909C40.752 88.8193 39.1242 89.4762 37.475 90.0695C36.3047 90.4933 35.1769 91.0124 33.9427 91.2455C31.7829 91.6692 29.6125 91.9447 27.4207 92.1142C26.4525 92.1884 25.4844 92.2943 24.5162 92.4002C23.282 92.5274 22.0478 92.6651 20.8136 92.8028C19.8135 92.9088 18.8028 93.0147 17.8026 93.1207C17.2068 93.1842 16.611 93.2266 15.9088 93.2902L15.9195 93.2796ZM80.1181 60.3735C80.1287 60.1828 80.1181 60.1192 80.1394 60.0663C80.6714 57.7461 81.1927 55.4153 81.7459 53.0952C82.6397 49.3554 83.278 45.5732 83.81 41.7804C84.0973 39.7251 84.2888 37.6592 84.6612 35.6145C85.4804 31.1119 85.8209 26.5351 86.4805 22.0113C86.7359 20.2845 86.8848 18.547 87.0338 16.8095C87.1934 14.9343 87.321 13.0591 87.4274 11.1839C87.5019 9.8914 87.5019 8.58829 87.5445 7.28519C87.5657 6.63893 87.6509 6.01386 87.8956 5.40999C88.4382 4.09629 89.7575 3.71489 90.8853 4.56244C91.098 4.72135 91.3108 4.91205 91.4811 5.11334C92.2471 6.02446 92.7472 7.06271 92.9174 8.24927C93.1621 9.84902 93.194 11.4594 93.1089 13.0697C92.928 16.7354 92.3216 20.348 91.5662 23.9395C90.2682 30.0948 88.502 36.123 86.6507 42.13C84.8101 48.1264 82.5013 53.9533 80.3522 59.8332C80.299 59.9709 80.2245 60.1086 80.1075 60.3629L80.1181 60.3735ZM16.7281 99.6362C16.9515 99.4455 17.1217 99.2866 17.292 99.1488C18.2176 98.3861 19.3028 97.9093 20.3987 97.4432C23.5267 96.1189 26.676 94.8052 29.804 93.4809C33.2086 92.0506 36.6239 90.6416 40.1243 89.4444C41.9117 88.8299 43.7311 88.4697 45.6143 88.5015C46.5186 88.5227 47.4442 88.5969 48.338 88.777C50.7425 89.2643 53.0938 89.9424 55.4026 90.7793C56.541 91.1925 57.7113 91.4573 58.9349 91.4891C59.3817 91.4891 59.818 91.5633 60.2648 91.6057C60.1903 91.7116 60.1159 91.754 60.0308 91.7752C58.7327 92.1354 57.456 92.538 56.1473 92.824C55.2004 93.0359 54.2216 93.163 53.264 93.1842C52.232 93.2054 51.2106 93.0465 50.1786 92.9723C47.9337 92.8028 45.6994 92.8452 43.4757 93.1736C40.2839 93.6504 37.2303 94.6145 34.3045 96.0023C31.7191 97.2207 29.2507 98.6721 26.8249 100.187C24.7502 101.48 22.6223 102.719 20.5157 103.948C19.7816 104.372 19.6007 104.319 18.9624 103.747C18.8028 103.609 18.6538 103.45 18.5155 103.291C17.6643 102.221 17.1749 100.992 16.7493 99.6574L16.7281 99.6362ZM69.5318 82.6852H69.468C69.4361 82.6111 69.3935 82.5263 69.3722 82.4415C68.9147 80.8948 68.4147 79.3692 68.021 77.8118C67.489 75.7035 67.0954 73.5635 66.5421 71.4764C65.6803 68.2557 64.6908 65.0668 63.7971 61.8567C61.8075 54.7055 59.3179 47.745 56.2218 40.9964C54.9132 38.1465 53.9769 35.1695 53.4768 32.0654C53.264 30.7623 53.1683 29.4592 53.5194 28.1455C54.1046 25.9207 55.243 23.9607 56.4346 22.0219C56.4878 21.9372 56.5304 21.8524 56.5729 21.7677C56.7219 22.0007 56.7857 22.1703 56.807 22.3292C56.9027 23.1132 56.9772 23.9077 57.0623 24.6917C57.2326 26.1961 57.3709 27.7005 57.573 29.1943C57.7965 30.8576 58.0625 32.5209 58.3497 34.1843C58.7647 36.5468 59.2966 38.8881 60.1052 41.1553C60.967 43.5709 62.0629 45.8804 63.1907 48.1794C64.1163 50.0652 64.8398 52.0252 65.3718 54.0593C66.5102 58.4983 67.0741 63.0327 67.6912 67.5565C67.9146 69.1456 68.1274 70.7348 68.3296 72.3345C68.5211 73.8283 68.6913 75.3327 68.8722 76.8265C69.0105 78.0131 69.1488 79.2103 69.2871 80.4074C69.3722 81.1702 69.4573 81.933 69.5425 82.7064L69.5318 82.6852ZM48.8699 35.4132C49.3381 34.5339 49.9339 33.8135 50.6467 33.199C51.4021 32.5527 51.9235 32.6481 52.4554 33.485C52.5725 33.6651 52.6789 33.8558 52.764 34.0465C53.0725 34.7775 53.413 35.498 53.6683 36.2502C54.4237 38.475 55.2111 40.6786 56.2325 42.7975C58.9455 48.4443 60.9883 54.3453 62.7332 60.3417C64.0631 64.9185 65.4037 69.4952 66.4889 74.1462C67.3401 77.8118 68.3402 81.4351 69.2765 85.0795C69.3297 85.2702 69.3722 85.4609 69.4148 85.6622C69.2126 85.5563 69.0956 85.4292 69.0211 85.2808C68.3402 83.893 67.638 82.5051 66.989 81.0961C66.5634 80.1849 66.2442 79.2209 65.8186 78.3098C63.3077 72.9066 61.3394 67.2916 59.4562 61.6448C58.105 57.5978 56.6793 53.5825 54.6791 49.7897C53.3492 47.2683 52.1895 44.6621 51.1255 42.0241C50.2531 39.8628 49.5296 37.6592 48.8699 35.4132V35.4132ZM29.3997 67.8213C29.4742 67.6306 29.4954 67.5353 29.5486 67.4505C30.3785 65.9461 31.6021 64.8867 33.1767 64.2193C33.7619 63.9756 34.379 63.9438 35.0067 64.0709C36.0494 64.2722 37.0282 64.6112 37.9432 65.1516C38.8263 65.6707 39.7519 66.1474 40.6243 66.6877C41.933 67.4929 43.2523 68.2769 44.5077 69.1562C46.4973 70.5547 48.4337 72.0167 50.3914 73.4575C51.2851 74.1144 52.1682 74.7818 53.0619 75.4387C53.7535 75.9472 54.4237 76.4769 55.1472 76.9325C57.9667 78.7017 60.8074 80.4286 63.6163 82.1979C65.276 83.2361 66.7443 84.4969 68.0104 85.9907C68.4359 86.4886 68.8296 87.0077 69.2765 87.5586C68.9466 87.8447 68.6913 88.0671 68.404 88.3108C68.1168 88.2261 67.8508 88.1731 67.6061 88.0672C67.0209 87.8129 66.4357 87.5374 65.8612 87.2514C61.7756 85.1961 57.8071 82.9289 53.8492 80.6511C51.8703 79.5175 49.9764 78.2674 48.1145 76.9537C46.4229 75.7459 44.7205 74.5487 42.9863 73.394C41.1138 72.1332 39.2093 70.9149 37.0814 70.1309C35.7515 69.6436 34.3683 69.3257 33.0065 68.9232C31.8148 68.5735 30.6339 68.2027 29.3784 67.8213H29.3997ZM63.8078 81.4881L63.712 81.5834C63.595 81.5198 63.4779 81.4669 63.3716 81.3927C61.3181 80.132 59.2541 78.8818 57.2113 77.5999C56.0941 76.9007 54.9983 76.1591 53.9237 75.3963C52.8278 74.6229 51.7745 73.786 50.6999 72.9914C49.3274 71.9743 47.9443 70.9679 46.5718 69.9402C45.0504 68.796 43.5608 67.6094 41.9011 66.656C39.8583 65.4906 37.8155 64.3252 35.794 63.1174C35.294 62.8102 34.8471 62.3758 34.4428 61.9415C34.0385 61.5071 33.9321 60.9562 34.0704 60.3629C34.496 58.6254 35.528 57.3753 37.0495 56.4642C38.3156 55.7014 40.8584 55.7756 42.0607 57.1634C42.8905 58.1381 43.8375 59.0174 44.6567 59.9921C45.859 61.4223 46.9974 62.895 48.1465 64.357C49.4977 66.0839 50.8382 67.8213 52.1788 69.5482C52.9236 70.5123 53.6577 71.4976 54.4025 72.4617C55.6154 74.0296 56.9347 75.5022 58.4987 76.7524C59.7967 77.8012 61.0734 78.8713 62.3395 79.9731C62.8609 80.4286 63.3077 80.9795 63.7865 81.4775L63.8078 81.4881ZM70.6809 85.7682C70.649 85.6199 70.617 85.5669 70.6277 85.5245C70.8724 84.3273 71.1065 83.1302 71.3618 81.933C71.9576 79.1891 72.6385 76.4557 73.1599 73.7012C73.7982 70.311 74.3196 66.8996 74.8728 63.4988C75.2984 60.8608 75.7134 58.2123 76.0964 55.5743C76.4581 53.1058 76.7986 50.6267 77.0965 48.1476C77.3412 46.1241 77.5646 44.1006 77.7029 42.077C77.8413 40.0429 78.0647 38.03 78.586 36.0595C79.3414 33.2202 80.0755 30.3703 80.799 27.5204C81.6076 24.3315 82.2354 21.1108 82.5545 17.71C82.5545 18.494 82.5545 19.1509 82.5545 19.8077C82.512 22.2338 82.4588 24.6493 82.4056 27.0754C82.3843 27.8488 82.3418 28.6222 82.2673 29.3956C82.1396 30.9 82.0013 32.4044 81.8311 33.9088C81.6715 35.3284 81.48 36.7481 81.2884 38.1677C81.0863 39.6403 80.8629 41.113 80.6607 42.5962C80.4373 44.2489 80.2245 45.891 80.0223 47.5437C79.8628 48.8892 79.6925 50.2347 79.618 51.5908C79.4691 54.144 79.4265 56.7079 79.235 59.2505C79.1286 60.649 78.9158 62.0686 78.5541 63.4247C77.7668 66.4229 76.8199 69.3787 75.7453 72.2922C74.16 76.6252 72.2236 80.8312 70.9149 85.2596C70.8724 85.4186 70.7766 85.5669 70.6596 85.7894L70.6809 85.7682ZM46.1462 48.137C45.7419 47.6709 45.2951 47.1729 44.8589 46.6432C43.6991 45.2342 42.5075 43.8569 41.4117 42.3949C39.2412 39.5344 37.1878 36.5892 34.7407 33.9406C33.6342 32.7434 32.6554 31.4297 31.8255 30.0207C31.3361 29.1837 30.9318 28.3044 30.5807 27.4039C30.3785 26.8953 30.2934 26.3126 30.2934 25.7617C30.2934 24.7553 31.1339 23.9607 32.134 23.9713C32.517 23.9713 32.9107 24.0455 33.2724 24.1726C34.4002 24.5964 35.4216 25.2002 36.2409 26.0796C37.0388 26.9483 37.8155 27.8488 38.5709 28.7599C39.5285 29.9041 40.4222 31.1119 41.4117 32.2243C43.3587 34.4067 45.0184 36.7905 46.3377 39.3967C46.4973 39.7145 46.6144 40.0747 46.6676 40.4349C46.8378 41.5261 46.9548 42.6174 47.1251 43.7086C47.3485 45.1388 47.806 46.4843 48.4231 47.798C48.4656 47.8934 48.4976 47.9993 48.5507 48.1264H46.1462V48.137ZM65.3718 15.9196C66.3825 15.4746 67.4146 15.2098 68.4998 15.2627C69.085 15.2945 69.5637 15.5276 69.9361 16.0361C70.2872 16.5129 70.4574 17.0426 70.4681 17.6041C70.5106 19.0025 70.5426 20.3904 70.5638 21.7889C70.5958 24.1302 70.617 26.4822 70.649 28.8235C70.6596 29.5969 70.7022 30.3703 70.7554 31.1437C70.9043 33.6757 71.0533 36.2184 71.2129 38.7504C71.298 40.0641 71.3831 41.3778 71.4788 42.6915C71.6172 44.5667 71.798 46.4419 71.8938 48.3171C71.9895 50.1605 71.9683 52.004 72.0534 53.8368C72.2023 56.9621 71.9789 60.0769 71.7448 63.1916C71.7342 63.3611 71.6703 63.52 71.6384 63.6789C71.5108 62.8208 71.4788 61.9732 71.3618 61.1257C71.0852 59.0492 70.7873 56.9833 70.4681 54.9174C70.0851 52.4171 69.6914 49.9063 69.2552 47.406C68.5955 43.5391 67.638 39.7145 67.2443 35.7946C67.106 34.3644 66.9783 32.9447 66.8294 31.5145C66.7017 30.2008 66.5528 28.8977 66.4251 27.584C66.2868 26.2385 66.1378 24.893 66.0208 23.5369C65.9144 22.3821 65.8506 21.2168 65.7548 20.062C65.6378 18.6953 65.4994 17.3286 65.3718 15.8878V15.9196ZM20.4306 104.69C20.5902 104.573 20.6434 104.531 20.7072 104.488C23.6544 102.719 26.6015 100.939 29.5593 99.1806C32.1659 97.6233 34.8471 96.2036 37.6985 95.1442C39.986 94.2966 42.3373 93.6928 44.7737 93.4703C46.9974 93.2584 49.2104 93.4067 51.4234 93.608C51.849 93.6504 52.2746 93.7139 52.7746 93.7775C51.8064 94.1483 50.9234 94.4555 50.0828 94.8263C47.1783 96.0871 44.4652 97.6762 41.9543 99.6044C40.2732 100.897 38.5177 102.083 36.6664 103.122C34.6449 104.255 32.4532 104.785 30.1657 105.029C29.8785 105.06 29.6337 105.029 29.4103 104.827C29.0486 104.499 28.5911 104.361 28.1123 104.404C27.6335 104.446 27.1441 104.51 26.676 104.626C25.8887 104.838 25.1013 105.082 24.3353 105.347C22.9309 105.834 21.718 105.347 20.42 104.69H20.4306ZM67.7976 84.6452L67.7231 84.7193C67.6061 84.6134 67.489 84.518 67.3826 84.4121C66.0314 82.9925 64.6908 81.5516 63.3396 80.1426C61.9246 78.67 60.8287 77.0066 59.9456 75.1632C58.8072 72.7901 57.5943 70.4487 56.3601 68.118C54.6791 64.9291 52.9236 61.772 51.2425 58.5831C50.2637 56.729 49.2104 54.9174 47.9762 53.2223C47.4442 52.4807 46.9867 51.6861 46.6995 50.8174C46.3377 49.7262 47.1889 48.7833 48.306 49.0587C48.8061 49.1859 49.3062 49.3872 49.7743 49.6096C51.0723 50.2453 52.0299 51.273 52.7427 52.4913C53.7003 54.1334 54.6578 55.7756 55.4558 57.4918C57.7539 62.4288 59.9776 67.4082 62.2118 72.3769C64.0206 76.3922 65.6697 80.471 67.7018 84.3803C67.7444 84.4651 67.7657 84.5498 67.8082 84.6346L67.7976 84.6452ZM24.1544 74.0084C23.8565 73.8283 23.6756 73.7224 23.4948 73.6059C20.4519 71.5929 17.2281 69.919 13.8873 68.4676C12.5574 67.8955 11.4509 67.0374 10.4933 65.9673C10.089 65.5224 9.84431 65.0138 9.68472 64.4417C9.45065 63.573 9.54641 62.7043 9.64216 61.8461C9.68472 61.4435 9.76984 61.0515 9.83367 60.7019C10.6423 60.8185 11.387 60.935 12.1318 61.0304C12.5361 61.0833 12.951 61.0833 13.3553 61.1151C14.8129 61.2211 16.2599 61.3376 17.7175 61.4541C18.2069 61.4965 18.6857 61.5283 19.1645 61.613C20.9307 61.9203 22.5372 62.6301 24.1012 63.4882C24.8779 63.912 25.6971 64.2828 26.4951 64.6748C26.6121 64.7278 26.7185 64.8019 26.8675 64.8867C25.6652 67.8319 25.08 70.9149 24.1438 74.0084H24.1544ZM83.0333 3.93737C83.4589 4.08569 83.8206 4.15985 84.1292 4.32936C85.2889 4.97562 86.0762 5.9503 86.3741 7.24281C86.7678 8.96969 86.9593 10.7178 86.821 12.4976C86.7678 13.271 86.6933 14.0444 86.6082 14.8178C86.3954 16.7989 86.2039 18.7907 85.9592 20.7718C85.7038 22.9119 85.3846 25.0307 85.108 27.1708C84.6505 30.8047 84.2249 34.4385 83.7568 38.0724C83.4163 40.6468 83.0333 43.2106 82.6397 45.7851C82.0758 49.4613 81.3097 53.1058 80.3415 56.6973C80.1181 57.513 79.884 58.3288 79.6606 59.1552C79.5968 58.9751 79.5861 58.7949 79.5968 58.6254C79.6606 57.3329 79.7351 56.0298 79.7989 54.7373C79.884 53.2117 79.9159 51.6755 80.0649 50.15C80.2883 47.8404 80.5862 45.5308 80.8735 43.2318C81.2033 40.6362 81.597 38.0618 81.9055 35.4662C82.1715 33.252 82.4269 31.0377 82.5652 28.8235C82.7248 26.2173 82.7673 23.5899 82.8205 20.9731C82.8844 18.3033 82.8524 15.6229 82.9801 12.9426C83.1078 10.2622 83.1397 7.59242 83.044 4.92265C83.044 4.6366 83.012 4.35055 83.0014 3.94796L83.0333 3.93737ZM67.7657 88.5651V88.6604C67.4784 88.6816 67.1805 88.724 66.8826 88.724C65.159 88.7346 63.4779 88.4168 61.8075 88.0566C59.3285 87.5162 57.0943 86.3615 54.9025 85.1537C52.9449 84.0731 50.9872 83.003 49.0402 81.9118C46.6782 80.5875 44.146 79.6976 41.5074 79.1679C38.5177 78.564 35.6451 77.6423 32.8682 76.371C32.1766 76.0532 31.4957 75.7141 30.8573 75.3221C29.8465 74.7077 29.4422 73.7012 29.1869 72.5358C29.8572 72.6947 30.4317 72.8642 31.0275 72.9596C33.2086 73.3198 35.4003 73.6482 37.5814 74.0084C40.5392 74.4852 43.4438 75.2162 46.242 76.2756C46.8165 76.4875 47.3591 76.8265 47.8698 77.155C48.7316 77.7165 49.5509 78.3521 50.4233 78.903C54.1471 81.2762 57.9986 83.4268 61.882 85.5139C63.829 86.5628 65.808 87.548 67.7763 88.5545L67.7657 88.5651ZM16.0897 87.7387C15.8556 87.8023 15.6641 87.8659 15.4832 87.9082C13.8554 88.2896 12.2169 88.6075 10.6104 89.0418C7.84409 89.794 5.02463 90.186 2.16261 90.3343C1.92854 90.3449 1.70511 90.3343 1.43912 90.3343C1.37528 90.1436 1.31144 89.9847 1.27953 89.8152C1.17313 89.0524 1.02418 88.2896 0.981622 87.5162C0.885866 86.0966 1.32208 84.8359 2.38603 83.8506C3.4819 82.8229 4.748 82.0707 6.20561 81.6999C7.87601 81.2762 9.58896 81.2126 11.3019 81.1596C13.7703 81.0749 16.2386 81.0537 18.7176 81.0113C18.9304 81.0113 19.1326 81.0113 19.505 81.0113C17.8878 83.0984 16.9408 85.3762 16.1003 87.7493L16.0897 87.7387ZM60.7436 77.7482L60.6372 77.8224C59.6052 76.9325 58.5519 76.0743 57.5518 75.1632C55.7218 73.4787 54.2961 71.4658 52.8278 69.4847C51.6575 67.9167 50.4765 66.3487 49.2742 64.8019C48.5401 63.8485 47.7528 62.9373 47.008 61.9838C45.7419 60.3841 44.4439 58.8161 42.9969 57.3647C42.0181 56.39 41.0499 55.4047 40.1456 54.3771C39.2625 53.36 39.454 52.6926 40.6988 52.1417C41.9543 51.5802 43.2416 51.5378 44.5716 51.9086C46.1249 52.343 47.3166 53.1905 48.2209 54.5254C49.4764 56.4006 50.4765 58.4241 51.5192 60.4053C54.5514 66.1262 57.8603 71.7095 60.6691 77.547C60.701 77.6105 60.7223 77.6847 60.7436 77.7482V77.7482ZM63.1162 91.415L63.1588 91.5103C63.0949 91.5739 63.0311 91.6374 62.9566 91.6904C61.3607 92.8558 59.9882 94.2437 58.6689 95.7163C57.9348 96.5426 57.19 97.369 56.4027 98.1424C54.7855 99.7421 52.9023 100.939 50.7212 101.586C49.0614 102.073 47.3698 102.475 45.6675 102.783C43.0395 103.249 40.4328 103.768 37.9432 104.774C37.0282 105.145 36.0813 105.452 35.1344 105.749C34.2194 106.035 33.2831 106.205 32.3149 106.152C31.5701 106.109 30.8573 105.95 30.2721 105.431C30.3253 105.389 30.3466 105.347 30.3785 105.347C30.6232 105.304 30.8786 105.251 31.1233 105.219C33.4533 104.933 35.6344 104.202 37.6027 102.92C39.2199 101.872 40.8265 100.823 42.3586 99.6574C44.9865 97.6762 47.8273 96.0977 50.8276 94.784C51.466 94.5085 52.1363 94.3072 52.8172 94.1377C53.9875 93.8623 55.1791 93.6928 56.3389 93.3749C58.3497 92.8346 60.3393 92.2201 62.3289 91.6374C62.5842 91.5633 62.8289 91.4891 63.0843 91.415H63.1162ZM78.054 36.9812L77.9689 36.96C77.9689 36.6951 77.9689 36.4197 77.9689 36.1548C77.937 34.5657 77.9264 32.9765 77.8625 31.3873C77.7987 29.7982 77.6604 28.209 77.5753 26.6305C77.5221 25.5075 77.5221 24.3845 77.4476 23.2615C77.288 20.4963 77.2029 17.7206 77.3518 14.9449C77.4582 12.9955 77.7455 11.0992 78.3094 9.23455C78.7669 7.69837 79.4904 6.3211 80.5756 5.14513C80.948 4.74254 81.4374 4.43531 81.9055 4.11747C82.1396 3.95856 82.4375 3.8844 82.7461 4.01153C82.7673 4.09629 82.7992 4.17045 82.7992 4.24461C82.8312 6.29991 82.8631 8.35522 82.8737 10.4105C82.8737 11.3004 82.8205 12.1904 82.7567 13.0803C82.6716 14.1609 82.5652 15.2415 82.4481 16.3222C82.2886 17.8054 82.1928 19.2992 81.9268 20.7612C81.48 23.1979 80.948 25.6134 80.3841 28.0289C79.7032 30.8894 78.9478 33.7287 78.2136 36.5786C78.1817 36.7163 78.1179 36.854 78.0647 36.9918L78.054 36.9812ZM22.0265 77.8436C20.1752 77.4834 18.3665 77.1232 16.5578 76.7948C14.8981 76.4875 13.2383 76.1273 11.5679 75.9472C9.48257 75.7247 7.37595 75.6823 5.27997 75.5552C4.92887 75.534 4.56713 75.4599 4.18411 75.4069C4.23731 75.2056 4.24794 75.0997 4.2905 74.9937C4.95015 73.002 6.10985 71.2751 7.35467 69.6118C7.5781 69.3151 7.84409 69.0609 8.13136 68.8172C8.81228 68.2345 9.62088 67.9379 10.5146 68.1392C11.8977 68.4464 13.2596 68.8384 14.5789 69.3893C17.7388 70.7348 20.6753 72.4934 23.5799 74.2945C23.6969 74.3687 23.7927 74.4534 23.9416 74.5699C23.5267 75.7989 22.867 76.8795 22.0372 77.833L22.0265 77.8436ZM35.6663 52.6078C35.4535 52.4171 35.3046 52.29 35.1663 52.1629C33.5065 50.6373 31.8468 49.1223 30.1976 47.5861C29.804 47.2153 29.421 46.8233 29.0805 46.3995C27.9208 44.9163 26.7717 43.4225 25.6546 41.9075C23.8884 39.5238 22.1542 37.1189 20.4093 34.714C20.388 34.6928 20.4093 34.6398 20.3987 34.5551C20.6753 34.3538 20.9626 34.1313 21.2711 33.93C22.2287 33.2943 22.9734 33.3473 23.8884 34.0465C25.4737 35.2543 26.8568 36.6527 28.1655 38.1571C30.0061 40.2866 31.9319 42.3419 34.0598 44.1959C36.2515 46.1135 38.4432 48.0311 40.635 49.9593C40.7414 50.0546 40.8265 50.1711 41.018 50.383C38.9433 50.5631 37.2091 51.2941 35.6876 52.5867L35.6663 52.6078ZM21.6648 80.3227C21.6648 80.3227 21.6648 80.2273 21.6967 80.2061C21.7712 80.1214 21.8563 80.0366 21.952 79.9625C23.2501 78.9348 24.2608 77.6741 25.1439 76.2862C25.495 75.7247 25.8993 75.2056 26.293 74.6759C26.6334 74.2203 27.0909 73.9449 27.6442 73.8177C28.3038 73.6588 28.9103 73.8707 29.2614 74.4534C29.7614 75.2904 30.4743 75.8519 31.3361 76.265C34.2938 77.7165 37.358 78.8924 40.6137 79.5069C42.9757 79.9519 45.2525 80.6511 47.4336 81.6682C47.6145 81.7529 47.7741 81.8589 47.9443 81.9542C47.8273 82.0284 47.7528 82.0284 47.6783 82.0284C46.6676 81.9966 45.6568 81.9436 44.6567 81.9436C44.0609 81.9436 43.4544 82.0602 42.8586 82.0496C42.0075 82.0284 41.1563 81.9224 40.3051 81.8589C38.2304 81.6999 36.1877 81.9436 34.1662 82.3886C32.0808 82.8441 30.0061 82.8653 27.9527 82.2191C25.878 81.5728 23.7927 80.9583 21.6861 80.3227H21.6648ZM21.2179 80.5769C22.1223 80.8206 22.9947 81.0219 23.8459 81.2762C25.2609 81.6999 26.6653 82.1661 28.0804 82.5687C29.3997 82.9501 30.7403 83.1726 32.1127 82.9713C33.4533 82.7806 34.7939 82.5157 36.1345 82.325C37.092 82.1873 38.0709 82.0813 39.0391 82.0601C39.9115 82.039 40.7839 82.1343 41.667 82.1767C41.784 82.1767 41.8904 82.2191 42.0075 82.2508C41.8904 82.3674 41.784 82.4098 41.6776 82.4415C40.2945 82.8229 39.0284 83.448 37.8155 84.2002C37.1346 84.624 36.4537 85.0372 35.7727 85.4503C35.0812 85.8741 34.347 86.1708 33.5491 86.2767C32.7405 86.3932 31.9319 86.5098 31.1233 86.6263C27.9102 87.0925 24.697 87.5374 21.4839 88.0142C19.9412 88.2367 18.4197 88.5227 16.994 89.2113C16.8983 89.2537 16.7813 89.2537 16.6429 89.2855C16.6323 89.1796 16.6004 89.0948 16.6217 89.0312C16.9621 88.046 17.292 87.0501 17.6643 86.0754C18.1644 84.7935 18.7496 83.5328 19.5794 82.431C20.0582 81.7953 20.6327 81.2338 21.2286 80.5663L21.2179 80.5769ZM15.8769 88.0883C15.5896 89.5821 15.313 90.9594 15.047 92.3685C14.93 92.4532 14.781 92.5486 14.6427 92.6439C13.3447 93.5338 12.036 94.4026 10.7593 95.3243C9.55705 96.193 8.35479 97.03 7.00357 97.6656C6.60991 97.8563 6.18433 97.9835 5.74811 98.153C3.57766 96.0765 2.34347 93.5338 1.50295 90.6734C2.04557 90.6204 2.50307 90.5568 2.97121 90.5462C4.56713 90.4827 6.15241 90.3343 7.71642 90.0059C10.0252 89.508 12.3233 88.9253 14.6321 88.385C15.0364 88.2896 15.4407 88.1943 15.8769 88.0883V88.0883ZM44.1992 49.1223C43.6779 48.6138 43.1778 48.137 42.6778 47.6497C40.0072 45.0329 37.3261 42.4479 34.6875 39.8099C31.5914 36.7163 28.6762 33.4638 26.2185 29.8194C26.1014 29.6499 25.9844 29.4698 25.8887 29.3109C26.1866 28.4739 26.527 28.209 27.325 28.2832C27.7186 28.315 28.1336 28.4527 28.474 28.6328C29.421 29.1413 30.2508 29.83 30.953 30.6457C32.7511 32.7116 34.5598 34.7669 36.326 36.8646C37.3793 38.1148 38.3368 39.4391 39.3689 40.6998C40.9116 42.575 42.4969 44.4078 44.0396 46.283C44.5929 46.9505 45.0716 47.6815 45.6143 48.4231C45.1142 48.6773 44.6461 48.8998 44.1886 49.1329L44.1992 49.1223ZM35.4429 52.7985C35.0386 53.1693 34.7088 53.466 34.3577 53.7944C34.1555 53.6355 33.964 53.4978 33.7938 53.3494C31.0807 51.0187 28.1229 49.0693 24.9949 47.353C23.6331 46.6114 22.2925 45.8063 20.9626 45.0117C19.473 44.1218 18.1325 43.0305 16.9408 41.7592C16.7387 41.5473 16.5472 41.2613 16.494 40.9752C16.2706 39.9158 16.3663 38.8564 16.7387 37.8287C16.8983 37.4049 17.143 37.0447 17.5473 36.7693C23.4841 42.1194 29.5486 47.3107 35.4535 52.7879L35.4429 52.7985ZM15.43 56.5595L15.4832 56.4324C15.6641 56.4006 15.8556 56.3476 16.0365 56.3476C16.7706 56.3476 17.5154 56.3476 18.2495 56.4006C19.2815 56.4748 20.3029 56.5383 21.335 56.3582C22.1436 56.2205 22.9415 56.0828 23.7501 55.9557C24.846 55.7756 25.9312 55.7756 26.9632 56.2205C28.1442 56.729 29.3039 57.2588 30.4743 57.7885C30.5913 57.8415 30.6764 57.9368 30.8254 58.0427C29.3358 60.098 28.0378 62.2275 26.9739 64.5477C26.4313 64.2828 25.9312 64.0709 25.4524 63.8061C24.7502 63.4247 24.0267 63.0751 23.3884 62.6195C22.5053 61.9944 21.6861 61.2634 20.8243 60.6066C19.1113 59.2929 17.3877 58.0004 15.6641 56.7079C15.5896 56.6549 15.5045 56.6125 15.4194 56.5595H15.43ZM19.8773 80.5346C19.6965 80.5452 19.5582 80.5558 19.4305 80.5663C16.7068 80.5981 13.9831 80.6087 11.2594 80.6617C10.0784 80.6829 8.88676 80.7359 7.70578 80.8312C7.02485 80.8842 6.39712 80.7888 5.75875 80.5981C5.18422 80.418 4.75864 80.0684 4.48201 79.5493C4.01388 78.6594 3.81173 77.6953 3.91812 76.6888C3.95004 76.371 4.03515 76.0637 4.09899 75.7247C7.24828 76.032 10.355 75.9366 13.3979 76.4769C16.0897 76.9537 18.7708 77.5152 21.452 78.0449C21.5371 78.0661 21.6222 78.1085 21.7712 78.172C21.1115 78.9878 20.4838 79.7718 19.8667 80.5346H19.8773ZM34.0704 54.0169C33.1554 55.0869 32.2723 56.1358 31.3573 57.2058C30.6339 56.8668 29.8997 56.5489 29.1975 56.1781C28.8464 55.998 28.5166 55.7438 28.2293 55.4683C27.5271 54.8009 26.8568 54.091 26.1546 53.4236C25.2503 52.5761 24.3034 51.7603 23.3777 50.9233C21.835 49.5249 20.4093 48.0099 19.1219 46.3678C18.2814 45.2977 17.5473 44.1535 17.026 42.8928C16.9515 42.7127 16.8983 42.522 16.8345 42.3313C17.0792 42.4055 17.2281 42.5326 17.3558 42.6703C18.3133 43.592 19.3454 44.4184 20.4732 45.107C21.7499 45.8804 23.0373 46.6644 24.3459 47.3742C27.6548 49.1647 30.7935 51.2094 33.6661 53.6567C33.7938 53.7626 33.9215 53.8898 34.0598 54.0169H34.0704ZM41.8266 50.1605C40.4222 48.9104 39.1135 47.7238 37.773 46.5691C34.9748 44.1641 32.2617 41.6533 29.6657 39.0259C28.5379 37.8923 27.5697 36.6316 26.6973 35.2967C25.7078 33.7817 25.4631 32.0972 25.612 30.3385C25.6333 30.1478 25.6971 29.9571 25.761 29.6393C25.9631 29.9359 26.0802 30.1054 26.2078 30.2749C27.325 31.7581 28.3996 33.2837 29.5806 34.7246C31.5914 37.1719 33.8044 39.4391 36.0706 41.6533C38.4858 44.0158 40.901 46.389 43.3055 48.7515C43.4651 48.9104 43.6034 49.0799 43.8268 49.3236C43.0927 49.6202 42.4543 49.8851 41.8053 50.15L41.8266 50.1605ZM48.721 35.731C48.7955 35.9641 48.8593 36.123 48.9019 36.2925C50.1254 40.5727 51.7532 44.6833 53.7535 48.6561C54.711 50.5631 55.6473 52.4807 56.4878 54.4301C58.4348 58.9539 59.7222 63.7107 61.4352 68.3299C61.4564 68.3828 61.4458 68.4464 61.4564 68.51C60.9777 67.6412 60.5946 66.7619 60.1903 65.8826C58.1582 61.38 56.2325 56.8244 53.7641 52.5125C53.0619 51.2835 52.2214 50.1817 51.051 49.3554C50.2956 48.8257 49.7105 48.1794 49.3381 47.3424C49.0402 46.675 48.7529 45.9864 48.4976 45.2977C47.9762 43.9099 47.8273 42.4373 47.6358 40.9752C47.423 39.2695 47.7528 37.6592 48.4656 36.1124C48.5188 35.9959 48.6039 35.8899 48.721 35.7204V35.731ZM17.8665 103.959C17.1536 104.022 16.5365 104.128 15.9195 104.128C14.8874 104.128 13.8554 104.128 12.834 104.033C11.8339 103.937 10.9508 103.514 10.3124 102.719C9.79111 102.073 9.32298 101.384 8.81228 100.706C8.88676 100.6 8.95059 100.505 9.02507 100.42C9.87623 99.4349 10.5784 98.3437 11.1742 97.1783C11.5147 96.5003 11.9084 95.854 12.2063 95.1654C12.5042 94.4661 13.0255 94 13.632 93.608C14.0788 93.3219 14.5363 93.0465 15.1002 92.6969C14.93 96.7651 15.5577 100.505 17.8665 103.948V103.959ZM32.8788 91.7752L32.9001 91.8176C32.6979 91.9129 32.4958 92.0083 32.283 92.1036C28.3357 93.7669 24.3991 95.4196 20.4519 97.0829C19.1432 97.6339 17.8558 98.2271 16.76 99.17C16.7387 99.1912 16.6855 99.1806 16.6004 99.1912C16.079 97.3796 15.8556 95.5362 15.9301 93.5974C21.6116 92.9829 27.2399 92.3791 32.8682 91.7752H32.8788ZM29.2188 68.0968C29.4635 68.1709 29.6444 68.2239 29.8253 68.2769C31.2935 68.7113 32.7618 69.1986 34.2406 69.5588C36.0281 70.0038 37.7198 70.6394 39.337 71.5294C41.4861 72.7159 43.497 74.1038 45.5185 75.5022C45.6036 75.5658 45.6781 75.6506 45.7632 75.7141C45.5823 75.7459 45.444 75.7141 45.3057 75.6718C42.2522 74.6123 39.1135 73.9025 35.911 73.4575C34.2406 73.2245 32.5702 72.9384 30.9105 72.6418C30.2721 72.5252 29.6444 72.3239 29.0486 72.165C28.6017 70.7348 28.6336 69.4211 29.2188 68.0968V68.0968ZM36.3047 20.687C36.3898 20.74 36.4749 20.793 36.5494 20.8566C38.5816 22.7953 40.4435 24.8718 41.9436 27.2555C43.497 29.7134 45.0078 32.2031 46.5399 34.6716C46.742 34.9894 46.7952 35.2967 46.7527 35.6569C46.6782 36.462 46.6356 37.2778 46.5718 38.0936C46.5718 38.2419 46.5399 38.3796 46.5292 38.5279C46.3271 38.3796 46.2207 38.2101 46.1249 38.03C45.1355 36.0383 43.8907 34.2054 42.433 32.5315C40.2945 30.0631 38.3262 27.4674 36.6877 24.6387C36.177 23.7488 35.8791 22.7953 35.7195 21.7995C35.6451 21.3227 35.7834 20.9201 36.2941 20.7082L36.3047 20.687ZM60.9245 41.9923L60.8074 42.0241C60.6478 41.6003 60.4776 41.1765 60.3287 40.7422C59.5733 38.6021 59.0626 36.3985 58.6902 34.1631C58.2859 31.7264 57.9667 29.2685 57.6156 26.8212C57.456 25.73 57.3177 24.6387 57.1794 23.5475C57.0943 22.8377 57.0198 22.1279 56.9347 21.3969C57.8177 20.2951 58.9136 19.4687 60.2755 18.7059C59.8605 26.5669 60.1797 34.2902 60.9245 41.9923V41.9923ZM36.826 20.4963C37.1239 20.4646 37.3899 20.3798 37.6453 20.4222C38.4326 20.5493 39.2518 20.6129 39.9753 20.9095C41.8479 21.6723 43.5183 22.7847 44.8589 24.3103C46.0718 25.6982 47.2527 27.1178 48.4444 28.5269C48.5614 28.6752 48.6678 28.8341 48.7742 28.9718C48.3592 30.0101 47.9762 30.9954 47.5613 32.0336C43.9758 28.1773 40.4328 24.3633 36.8367 20.4963H36.826ZM9.91879 60.3099C10.2593 59.3564 10.7168 58.6254 11.3658 58.011C12.2595 57.1528 13.3873 56.8138 14.5576 56.5489C14.8342 56.4854 15.047 56.5701 15.2704 56.7184C15.9301 57.1952 16.611 57.6508 17.26 58.1487C18.8347 59.3564 20.388 60.5854 21.952 61.8037C22.101 61.9203 22.2393 62.0474 22.3776 62.1639C22.1223 62.1639 21.9201 62.0792 21.6967 62.0156C20.92 61.7931 20.1433 61.4647 19.3454 61.3694C17.6111 61.1469 15.8663 61.0409 14.1214 60.8926C13.1319 60.8079 12.1424 60.7549 11.1636 60.6384C10.7699 60.596 10.3869 60.4265 9.92943 60.2993L9.91879 60.3099ZM20.0795 34.8411C22.6755 38.3584 25.2396 41.844 27.8144 45.3189L27.7293 45.4037C24.4523 42.4267 21.1009 39.5344 17.7814 36.5468C18.5687 35.9535 19.2815 35.4238 20.0795 34.8305V34.8411ZM12.068 94.6992L12.1424 94.784C11.7381 95.5468 11.3232 96.299 10.9295 97.0618C10.3869 98.1 9.76984 99.0747 9.01444 99.9646C8.86548 100.134 8.70589 100.293 8.53565 100.463C7.69513 99.7633 6.89717 99.0959 6.03538 98.3755C8.37606 97.5491 10.2167 96.1189 12.068 94.6886V94.6992ZM46.9335 34.4173L46.7952 34.4491C45.1887 31.8323 43.4544 29.2897 42.0181 26.5563C43.8162 28.5163 45.6143 30.4656 47.4336 32.4468C47.2634 33.1142 47.1038 33.7711 46.9335 34.4173V34.4173Z" fill="#E9D0B6"/>
</svg>
