<svg width="40" height="21" viewBox="0 0 40 21" fill="none" xmlns="http://www.w3.org/2000/svg">
<path d="M39.1867 8.2176C39.1223 7.7976 38.8411 7.4436 38.4459 7.2852C35.9111 6.2716 34.3279 4.8188 32.7975 3.414C30.8839 1.6584 29.0767 0 26.0007 0C24.4375 0 23.3207 0.7448 22.3351 1.4016C21.5311 1.9372 20.8375 2.4 20.0007 2.4C19.1639 2.4 18.4703 1.9372 17.6663 1.4016C16.6807 0.7448 15.5639 0 14.0007 0C10.9247 0 9.11752 1.6584 7.20392 3.4144C5.67352 4.8196 4.09032 6.272 1.55552 7.2856C1.16072 7.444 0.879518 7.7976 0.814718 8.218C0.750318 8.6376 0.911918 9.06 1.24112 9.3288L12.1195 18.2296C13.8295 19.6288 15.9883 20.4 18.1995 20.4H21.8019C24.0131 20.4 26.1719 19.6288 27.8803 18.2296L38.7599 9.3288C39.0895 9.0596 39.2511 8.6372 39.1867 8.2176ZM8.82672 5.1828C10.5871 3.5672 11.8587 2.4 14.0007 2.4C14.8375 2.4 15.5311 2.8628 16.3351 3.3984C17.3207 4.0552 18.4375 4.8 20.0007 4.8C21.5639 4.8 22.6807 4.0552 23.6663 3.3984C24.4703 2.8628 25.1639 2.4 26.0007 2.4C28.1427 2.4 29.4143 3.5672 31.1747 5.1828C31.8883 5.8376 32.6587 6.5284 33.5351 7.2H27.2007C25.7991 7.2 24.7643 7.8 23.7623 8.3808C22.6807 9.0076 21.6599 9.6 20.0007 9.6C18.3415 9.6 17.3207 9.0076 16.2391 8.3808C15.2371 7.8 14.2023 7.2 12.8007 7.2H6.46672C7.34312 6.5284 8.11352 5.8376 8.82672 5.1828ZM26.3603 16.3724C25.0783 17.4224 23.4599 18 21.8019 18H18.1995C16.5411 18 14.9231 17.4224 13.6399 16.3724L5.36272 9.6H12.8007C13.5567 9.6 14.2091 9.978 15.0343 10.4568C16.2203 11.1444 17.6955 12 20.0007 12C22.3059 12 23.7811 11.1444 24.9671 10.4568C25.7923 9.978 26.4447 9.6 27.2007 9.6H34.6387L26.3603 16.3724Z" fill="#CD5F37"/>
</svg>
