<svg width="48" height="42" viewBox="0 0 48 42" fill="none" xmlns="http://www.w3.org/2000/svg">
<path d="M43.5885 6.84375H18.6562V2.25C18.6562 1.47337 18.0266 0.84375 17.25 0.84375C7.74091 0.84375 -0.0262769 8.57944 6.68147e-05 18.0486C0.0265043 27.519 7.89401 35.1562 17.4024 35.1562H20.25C20.3016 35.1562 20.3437 35.1982 20.3437 35.25V39.75C20.3437 40.5266 20.9733 41.1562 21.75 41.1562H27.75C28.5266 41.1562 29.1562 40.5266 29.1562 39.75V35.25C29.1562 31.512 26.8413 28.305 23.5698 26.986C23.9279 26.6551 23.751 26.83 28.2801 21.889C29.2896 20.7878 30.7254 20.1562 32.2193 20.1562H39.8437C44.3411 20.1562 48 16.4974 48 12V11.2528C48.0048 8.82422 46.0323 6.84375 43.5885 6.84375ZM20.25 29.1562C23.6101 29.1562 26.3437 31.8899 26.3437 35.25V38.3438H23.1562V35.25C23.1562 33.6474 21.8524 32.3438 20.25 32.3438H17.4024C9.37947 32.3438 2.8345 25.9275 2.81257 18.0407C2.79166 10.5272 8.62882 4.42003 15.8437 3.72384V6.93094C10.3699 7.61484 6.07385 12.297 6.09372 18.0394C6.115 24.1693 11.1672 29.1562 17.3558 29.1562H20.25ZM45.1875 12C45.1875 14.9466 42.7903 17.3438 39.8437 17.3438H32.2193C29.9392 17.3438 27.7477 18.3077 26.2069 19.9886L21.9698 24.611C20.9603 25.7122 19.5245 26.3438 18.0306 26.3438H17.3558C15.3917 26.3438 13.5801 25.6762 12.1423 24.5589C12.6258 23.6152 13.6512 21.8647 15.3547 20.1023C18.6878 16.6545 22.8581 14.9062 27.75 14.9062H30C30.7766 14.9062 31.4062 14.2766 31.4062 13.5C31.4062 12.7234 30.7766 12.0938 30 12.0938H27.75C20.6707 12.0938 16.0023 15.3859 13.3326 18.1476C11.8539 19.6772 10.8165 21.2062 10.1493 22.3492C9.36607 21.0894 8.91166 19.6104 8.90622 18.0296C8.89029 13.4068 12.6258 9.65625 17.25 9.65625H43.5884C44.4648 9.65625 45.1892 10.3633 45.1875 11.25V12Z" fill="white"/>
</svg>
