<svg width="40" height="34" viewBox="0 0 40 34" fill="none" xmlns="http://www.w3.org/2000/svg">
<path d="M36.3237 5.20312H15.5469V1.375C15.5469 0.727812 15.0222 0.203125 14.375 0.203125C6.45076 0.203125 -0.0218974 6.64953 5.56789e-05 14.5405C0.0220869 22.4325 6.57834 28.7969 14.502 28.7969H16.875C16.918 28.7969 16.9531 28.8319 16.9531 28.875V32.625C16.9531 33.2722 17.4778 33.7969 18.125 33.7969H23.125C23.7722 33.7969 24.2969 33.2722 24.2969 32.625V28.875C24.2969 25.76 22.3677 23.0875 19.6415 21.9884C19.9399 21.7126 19.7925 21.8584 23.5668 17.7409C24.408 16.8232 25.6045 16.2969 26.8494 16.2969H33.2031C36.9509 16.2969 40 13.2478 40 9.5V8.87734C40.004 6.85352 38.3602 5.20312 36.3237 5.20312ZM16.875 23.7969C19.6751 23.7969 21.9531 26.0749 21.9531 28.875V31.4531H19.2969V28.875C19.2969 27.5395 18.2104 26.4531 16.875 26.4531H14.502C7.81623 26.4531 2.36209 21.1063 2.34381 14.5339C2.32638 8.27266 7.19068 3.18336 13.2031 2.6032V5.27578C8.64162 5.8457 5.06154 9.7475 5.0781 14.5328C5.09584 19.6411 9.30599 23.7969 14.4632 23.7969H16.875ZM37.6562 9.5C37.6562 11.9555 35.6586 13.9531 33.2031 13.9531H26.8494C24.9494 13.9531 23.1231 14.7564 21.839 16.1572L18.3082 20.0091C17.4669 20.9268 16.2704 21.4531 15.0255 21.4531H14.4632C12.8264 21.4531 11.3168 20.8968 10.1186 19.9658C10.5215 19.1794 11.376 17.7205 12.7956 16.252C15.5732 13.3788 19.0484 11.9219 23.125 11.9219H25C25.6472 11.9219 26.1719 11.3972 26.1719 10.75C26.1719 10.1028 25.6472 9.57812 25 9.57812H23.125C17.2256 9.57812 13.3353 12.3216 11.1105 14.623C9.87826 15.8977 9.01373 17.1718 8.45779 18.1243C7.80506 17.0745 7.42638 15.842 7.42185 14.5247C7.40857 10.6723 10.5215 7.54688 14.375 7.54688H36.3236C37.054 7.54688 37.6576 8.13609 37.6562 8.875V9.5Z" fill="#CD5F37"/>
</svg>
