<svg width="40" height="40" viewBox="0 0 40 40" fill="none" xmlns="http://www.w3.org/2000/svg">
<path d="M20.0008 17.5998C18.9064 17.5998 17.8772 17.1734 17.104 16.3998L10.7524 10.0482C9.75158 9.0474 9.20078 7.7174 9.20078 6.303V6.0966C9.20078 4.6822 9.75158 3.3522 10.7524 2.3514C11.7532 1.3506 13.0832 0.799805 14.4976 0.799805H14.704C16.1184 0.799805 17.4484 1.3506 18.4492 2.3514L20.0008 3.903L21.5524 2.3514C22.5532 1.3506 23.8832 0.799805 25.2976 0.799805H25.504C26.9184 0.799805 28.2484 1.3506 29.2492 2.3514C30.25 3.3522 30.8008 4.6822 30.8008 6.0966V6.303C30.8008 7.7174 30.25 9.0474 29.2492 10.0482L22.8976 16.3998C22.1244 17.1734 21.0952 17.5998 20.0008 17.5998ZM14.4976 3.1998C13.724 3.1998 12.9964 3.501 12.4492 4.0482C11.902 4.5954 11.6008 5.3234 11.6008 6.0966V6.303C11.6008 7.0766 11.902 7.8042 12.4492 8.3514L18.8008 14.703C19.4428 15.343 20.5588 15.343 21.2008 14.703L27.5524 8.3514C28.0996 7.8042 28.4008 7.0762 28.4008 6.303V6.0966C28.4008 5.323 28.0996 4.5954 27.5524 4.0482C27.0052 3.501 26.2772 3.1998 25.504 3.1998H25.2976C24.524 3.1998 23.7964 3.501 23.2492 4.0482L20.8492 6.4482C20.3804 6.917 19.6212 6.917 19.1524 6.4482L16.7524 4.0482C16.2052 3.501 15.4772 3.1998 14.704 3.1998H14.4976ZM32.0008 39.1998H23.6008C22.9376 39.1998 22.4008 38.663 22.4008 37.9998V26.7886C22.4008 25.1854 23.0256 23.6786 24.1588 22.5454L28.0072 18.697C29.0384 17.6646 30.7156 17.3554 32.0008 17.8498V12.7998C32.0008 10.1526 34.1536 7.9998 36.8008 7.9998C38.124 7.9998 39.2008 9.0766 39.2008 10.3998V25.211C39.2008 26.8142 38.576 28.321 37.4428 29.4542L33.552 33.345C33.3284 33.569 33.2008 33.8782 33.2008 34.1934V37.9998C33.2008 38.663 32.664 39.1998 32.0008 39.1998V39.1998ZM24.8008 36.7998H30.8008V34.1934C30.8008 33.2326 31.1756 32.3278 31.8556 31.6482L35.7464 27.7574C36.4256 27.0778 36.8008 26.1734 36.8008 25.211V10.3998C35.4776 10.3998 34.4008 11.4766 34.4008 12.7998V21.1998C34.4008 21.2174 34.4008 21.235 34.3996 21.2526C34.4008 21.283 34.4008 21.3146 34.4008 21.345C34.4008 22.3318 34.0012 23.2962 33.304 23.9934L29.2492 28.0482C28.7804 28.517 28.0212 28.517 27.5524 28.0482C27.0836 27.5794 27.0836 26.8202 27.5524 26.3514L31.6072 22.2966C31.858 22.0458 32.0008 21.699 32.0008 21.345C32.0008 20.6034 31.3972 19.9998 30.6556 19.9998C30.3016 19.9998 29.9548 20.1426 29.704 20.3934L25.8556 24.2418C25.1756 24.9218 24.8008 25.8262 24.8008 26.7886V36.7998ZM16.4008 39.1998H8.00078C7.33758 39.1998 6.80078 38.663 6.80078 37.9998V34.1934C6.80078 33.8782 6.67318 33.5686 6.44918 33.345L2.55838 29.4542C1.42558 28.3214 0.800781 26.8142 0.800781 25.211V10.3998C0.800781 9.0766 1.87758 7.9998 3.20078 7.9998C5.84798 7.9998 8.00078 10.1526 8.00078 12.7998V17.8494C9.28878 17.355 10.9632 17.6642 11.9944 18.6966L15.8428 22.545C16.976 23.6782 17.6008 25.1854 17.6008 26.7886V37.9998C17.6008 38.663 17.064 39.1998 16.4008 39.1998ZM9.20078 36.7998H15.2008V26.7886C15.2008 25.8266 14.8256 24.9218 14.146 24.2422L10.2976 20.3938C10.0468 20.1426 9.69998 19.9998 9.34598 19.9998C8.60438 19.9998 8.00078 20.6034 8.00078 21.345C8.00078 21.699 8.14358 22.0458 8.39438 22.2966L12.4492 26.3514C12.918 26.8202 12.918 27.5794 12.4492 28.0482C11.9804 28.517 11.2212 28.517 10.7524 28.0482L6.69758 23.9934C6.00038 23.2962 5.60078 22.3318 5.60078 21.345C5.60078 21.3146 5.60078 21.283 5.60198 21.2526C5.60078 21.235 5.60078 21.2174 5.60078 21.1998V12.7998C5.60078 11.4766 4.52398 10.3998 3.20078 10.3998V25.211C3.20078 26.173 3.57558 27.0778 4.25558 27.7574L8.14638 31.6482C8.82558 32.3278 9.20078 33.2326 9.20078 34.1934V36.7998Z" fill="#CD5F37"/>
</svg>
